<svg id="Layer_1" height="512" viewBox="0 0 512 512" width="512" xmlns="http://www.w3.org/2000/svg" data-name="Layer 1"><path d="m462.171 165.466a6 6 0 0 0 -8.033-2.753l-12.255 6.01-5.423-14.291c-.065-.173-.139-.343-.22-.509a22.973 22.973 0 0 0 -14.115-12.081 25.141 25.141 0 0 0 -18.352 1.689l-130.03 63.629c-12.29 6.013-17.451 19.907-11.842 31.738l5.787 15.254-66.927 32.823a45.633 45.633 0 0 0 -12.776-12.868l35.543-72.675 6.342 3.811c.147.089.3.171.454.247a23.193 23.193 0 0 0 10.222 2.39 24.415 24.415 0 0 0 21.794-14.1l63.6-130.049a25.167 25.167 0 0 0 1.68-18.35 22.977 22.977 0 0 0 -12.083-14.106 5.647 5.647 0 0 0 -.56-.24l-6.865-2.535 3.6-7.353a6 6 0 0 0 -2.748-8.024l-3.086-1.513a41.962 41.962 0 0 0 -33.794-1.639 46.274 46.274 0 0 0 -24.814 23.213l-125.322 256.273a46.521 46.521 0 0 0 -6.029 19.264l-20.512 21.216a32.634 32.634 0 0 0 -4.085 42.285l-35.276 35.267a41.5 41.5 0 1 0 58.7 58.694l80.61-80.61a22.5 22.5 0 1 1 31.814 31.815l-73.18 73.19a6 6 0 1 0 8.486 8.484l73.18-73.189a34.5 34.5 0 0 0 -48.786-48.786l-80.61 80.607a29.5 29.5 0 1 1 -41.728-41.721l35.157-35.147a32.662 32.662 0 0 0 42.013-2.545c.075-.072.15-.146.221-.223l18.124-19.2c.71.033 1.42.065 2.128.065a46.1 46.1 0 0 0 20.3-4.721l259.631-127.05c22.732-11.126 32.2-36.874 21.563-58.613zm-183.154 52.473 130.034-63.632a13.217 13.217 0 0 1 9.616-.974 10.923 10.923 0 0 1 6.681 5.639l5.714 15.058-152.553 74.815-5.479-14.445q-.1-.259-.22-.508c-2.955-6.038-.344-12.748 6.207-15.953zm-20.967-179.484a34.336 34.336 0 0 1 18.329-17.281 29.912 29.912 0 0 1 21.87.177l-23.094 47.211a6 6 0 1 0 10.779 5.273l16.877-34.5 7.7 2.838a10.926 10.926 0 0 1 5.618 6.666 13.215 13.215 0 0 1 -.969 9.614l-63.599 130.047c-3.117 6.372-9.856 9.053-15.755 6.308l-6.986-4.2 48.508-99.181a6 6 0 0 0 -10.78-5.273l-89.309 182.612a45.884 45.884 0 0 0 -32.159.7zm-124.738 331.245a20.621 20.621 0 0 1 -29.062-.8l-1.161-1.209a20.622 20.622 0 0 1 .693-29.156c.058-.055.115-.113.172-.171l13.388-13.847a46.083 46.083 0 0 0 28.831 31.561zm303.521-153.329-259.633 127.05a34.35 34.35 0 0 1 -49.442-31.427 34.439 34.439 0 0 1 3.321-14.11 5.98 5.98 0 0 0 .516-.849l.974-1.985a34.238 34.238 0 0 1 44.9-13.2h.009a33.984 33.984 0 0 1 15.4 15.437 6 6 0 0 0 8.12 2.939l252.945-124.05c6.057 15.367-.978 32.299-17.11 40.195z"/><path d="m180 303.911c-3-4.727-6.431-8.27-11.407-9.975a19.655 19.655 0 1 0 12.86 22.838 19.388 19.388 0 0 0 -1.453-12.862zm-10.369 10.289a7.7 7.7 0 1 1 -14.8-4.129 7.7 7.7 0 0 1 14.8 4.129z"/><path d="m391.243 217.681-70.89 34.69a6 6 0 1 0 5.274 10.778l70.89-34.69a6 6 0 0 0 -5.274-10.778z"/><path d="m418.542 204.321-13.91 6.81a6 6 0 1 0 5.276 10.778l13.91-6.81a6 6 0 1 0 -5.276-10.778z"/></svg>