<svg height="512" viewBox="0 0 24 24" width="512" xmlns="http://www.w3.org/2000/svg" xmlns:xlink="http://www.w3.org/1999/xlink"><linearGradient id="linear-gradient" gradientUnits="userSpaceOnUse" x1="1.762" x2="22.238" y1="12" y2="12"><stop offset="0" stop-color="#ed4424"/><stop offset="1" stop-color="#be1e2d"/></linearGradient><g id="_13" data-name="13"><path d="m22.10352 11.5-4.61817-8a.99985.99985 0 0 0 -.86621-.5h-9.23779a.99985.99985 0 0 0 -.86621.5l-4.61914 8a1.002 1.002 0 0 0 0 1l4.61914 8a.99985.99985 0 0 0 .86621.5h9.23779a.99985.99985 0 0 0 .86621-.5l4.61817-8a.99963.99963 0 0 0 0-1zm-6.06152 7.5h-8.0835l-4.0415-7 4.0415-7h8.0835l4.041 7zm-5.042-6v-5a1 1 0 0 1 2 0v5a1 1 0 0 1 -2 0zm2.00488 3a1.00488 1.00488 0 1 1 -1.00488-1.00488 1.00809 1.00809 0 0 1 1.00488 1.00488z" fill="url(#linear-gradient)"/></g></svg>