<svg id="Layer_1" enable-background="new 0 0 450 450" height="512" viewBox="0 0 450 450" width="512" xmlns="http://www.w3.org/2000/svg"><g><g><path d="m399.2 377.9c-2.8 0-5-2.3-5-5v-3.7c1-118 1.7-203.3 24.9-313.5.6-2.7 3.2-4.4 5.9-3.9 2.7.6 4.4 3.2 3.9 5.9-23 109.2-23.7 194.1-24.7 311.5v3.7c0 2.8-2.3 5-5 5zm-125.6 0c-2.7 0-5-2.2-5-5v-3.7c-1-117.4-1.7-202.3-24.7-311.5-.6-2.7 1.2-5.4 3.9-5.9 2.7-.6 5.4 1.2 5.9 3.9 23.2 110.2 23.9 195.5 24.9 313.5v3.7c0 2.7-2.2 5-5 5z"/></g><g><path d="m424 61.7h-175.2c-2.8 0-5-2.2-5-5v-46c0-2.8 2.2-5 5-5h175.2c2.8 0 5 2.2 5 5v46c0 2.8-2.2 5-5 5zm-170.2-10h165.2v-36h-165.2z"/></g><g><path d="m283.8 61.7c-2.8 0-5-2.2-5-5v-46c0-2.8 2.2-5 5-5s5 2.2 5 5v46c0 2.8-2.2 5-5 5z"/></g><g><path d="m318.9 61.7c-2.8 0-5-2.2-5-5v-46c0-2.8 2.2-5 5-5s5 2.2 5 5v46c0 2.8-2.3 5-5 5z"/></g><g><path d="m353.9 61.7c-2.8 0-5-2.2-5-5v-46c0-2.8 2.2-5 5-5s5 2.2 5 5v46c0 2.8-2.2 5-5 5z"/></g><g><path d="m389 61.7c-2.8 0-5-2.2-5-5v-46c0-2.8 2.2-5 5-5s5 2.2 5 5v46c0 2.8-2.3 5-5 5z"/></g><g><path d="m381.7 445.8h-90.5c-12.4 0-22.5-10.1-22.5-22.5v-50.4c0-2.8 2.2-5 5-5h125.6c2.8 0 5 2.2 5 5v50.4c-.1 12.4-10.2 22.5-22.6 22.5zm-103.1-67.9v45.4c0 6.9 5.6 12.5 12.5 12.5h90.5c6.9 0 12.5-5.6 12.5-12.5v-45.4z"/></g><g><path d="m399.6 333.4h-126.4c-2.8 0-5-2.2-5-5s2.2-5 5-5h126.4c2.8 0 5 2.2 5 5s-2.2 5-5 5z"/></g><g><path d="m411.3 134.8h-149.8c-2.8 0-5-2.2-5-5s2.2-5 5-5h149.8c2.8 0 5 2.2 5 5s-2.3 5-5 5z"/></g><g><path d="m336.4 289c-27.6 0-50-26.9-50-60s22.4-60 50-60 50 26.9 50 60-22.4 60-50 60zm0-109.9c-22.1 0-40 22.4-40 50s18 50 40 50 40-22.4 40-50-18-50-40-50z"/></g><g><path d="m357.4 219.8h-42c-2.8 0-5-2.2-5-5s2.2-5 5-5h42c2.8 0 5 2.2 5 5s-2.3 5-5 5z"/></g><g><path d="m357.4 248.4h-42c-2.8 0-5-2.2-5-5s2.2-5 5-5h42c2.8 0 5 2.2 5 5s-2.3 5-5 5z"/></g><g><path d="m358.3 445.8c-2.8 0-5-2.2-5-5v-26.7c0-1.2-1-2.2-2.2-2.2h-29.3c-1.2 0-2.2 1-2.2 2.2v26.7c0 2.8-2.2 5-5 5s-5-2.2-5-5v-26.7c0-6.8 5.5-12.2 12.2-12.2h29.2c6.8 0 12.2 5.5 12.2 12.2v26.7c.1 2.7-2.2 5-4.9 5z"/></g><g><path d="m200.5 445.8h-134.8c-24.4 0-44.2-19.8-44.2-44.2v-139.4c0-9.1 7.4-16.5 16.5-16.5h190.1c9.1 0 16.5 7.4 16.5 16.5v139.4c0 24.4-19.8 44.2-44.1 44.2zm-162.5-190.1c-3.6 0-6.5 2.9-6.5 6.5v139.4c0 18.8 15.3 34.2 34.2 34.2h134.8c18.8 0 34.2-15.3 34.2-34.2v-139.4c0-3.6-2.9-6.5-6.5-6.5z"/></g><g><path d="m239.6 406.6h-213.1c-2.8 0-5-2.2-5-5s2.2-5 5-5h213.1c2.8 0 5 2.2 5 5s-2.2 5-5 5zm0-111.7h-213.1c-2.8 0-5-2.2-5-5s2.2-5 5-5h213.1c2.8 0 5 2.2 5 5s-2.2 5-5 5z"/></g><g><path d="m70.9 406.6c-2.8 0-5-2.2-5-5v-111.7c0-2.8 2.2-5 5-5s5 2.2 5 5v111.7c0 2.8-2.3 5-5 5z"/></g><g><path d="m195.3 406.6c-2.8 0-5-2.2-5-5v-111.7c0-2.8 2.2-5 5-5s5 2.2 5 5v111.7c0 2.8-2.3 5-5 5z"/></g><g><path d="m224.4 255.7c-2.8 0-5-2.2-5-5v-29c0-.8-.6-1.4-1.4-1.4h-169.8c-.8 0-1.4.6-1.4 1.4v29c0 2.8-2.2 5-5 5s-5-2.2-5-5v-29c0-6.3 5.1-11.4 11.4-11.4h169.8c6.3 0 11.4 5.1 11.4 11.4v29c0 2.8-2.3 5-5 5z"/></g><g><path d="m78.3 255.7c-2.8 0-5-2.2-5-5v-35.4c0-2.8 2.2-5 5-5s5 2.2 5 5v35.4c0 2.8-2.2 5-5 5z"/></g><g><path d="m114.8 255.7c-2.8 0-5-2.2-5-5v-35.4c0-2.8 2.2-5 5-5s5 2.2 5 5v35.4c0 2.8-2.2 5-5 5z"/></g><g><path d="m151.3 255.7c-2.8 0-5-2.2-5-5v-35.4c0-2.8 2.2-5 5-5s5 2.2 5 5v35.4c0 2.8-2.2 5-5 5z"/></g><g><path d="m187.9 255.7c-2.8 0-5-2.2-5-5v-35.4c0-2.8 2.2-5 5-5s5 2.2 5 5v35.4c0 2.8-2.3 5-5 5z"/></g><g><path d="m157.8 389.5h-49.4c-10.8 0-19.5-8.8-19.5-19.5 0-6.3 3-12.1 7.9-15.7-.9-2.1-1.4-4.5-1.4-6.8 0-9.6 7.8-17.4 17.4-17.4h.4c2.3-4.5 6.2-7.5 10.9-8.4 6.7-1.3 5.7-14 5.7-14.1-.2-1.6.5-3.2 1.7-4.3s2.9-1.4 4.5-1c12 3.2 17.9 13.2 16.8 27.9h.7c9.6 0 17.4 7.8 17.4 17.4 0 2.4-.5 4.7-1.4 6.8 4.9 3.6 7.9 9.4 7.9 15.7-.1 10.6-8.9 19.4-19.6 19.4zm-45.1-49.5c-4.1 0-7.4 3.3-7.4 7.4 0 1.9.8 3.8 2.2 5.2 1.2 1.2 1.7 3 1.3 4.7s-1.7 3.1-3.3 3.6c-3.9 1.3-6.7 5-6.7 9.1 0 5.3 4.3 9.5 9.5 9.5h49.4c5.3 0 9.5-4.3 9.5-9.5 0-4.1-2.7-7.8-6.7-9.1-1.7-.5-2.9-1.9-3.3-3.6s.1-3.5 1.3-4.7c1.4-1.4 2.2-3.2 2.2-5.2 0-4.1-3.3-7.4-7.4-7.4h-6.3c-1.5 0-2.9-.7-3.9-1.8-.9-1.1-1.3-2.7-1.1-4.1 2-10.6 0-16.1-2.7-18.9-1.1 7.1-4.8 14.6-13.6 16.3-2.7.5-4 3-4.6 5-.6 2.1-2.6 3.6-4.8 3.6z"/></g></g></svg>