<svg id="Capa_1" enable-background="new 0 0 512.006 512.006" height="512" viewBox="0 0 512.006 512.006" width="512" xmlns="http://www.w3.org/2000/svg"><g><path d="m313.986 476.825c-3.183 0-6.135-2.041-7.147-5.236-1.252-3.948.935-8.164 4.884-9.415l12.875-4.081-8.732-42.418h-23.706c-4.136 0-7.5 3.364-7.5 7.5 0 4.143-3.357 7.5-7.5 7.5h-22.07v32.5c0 4.143-3.357 7.5-7.5 7.5s-7.5-3.357-7.5-7.5v-140c0-4.143 3.357-7.5 7.5-7.5s7.5 3.357 7.5 7.5v32.5h22.069c4.143 0 7.5 3.357 7.5 7.5 0 4.136 3.364 7.5 7.5 7.5h70.536c4.143 0 7.5 3.357 7.5 7.5s-3.357 7.5-7.5 7.5h-70.535c-2.628 0-5.153-.453-7.5-1.285v17.57c2.347-.832 4.872-1.285 7.5-1.285h163.653c4.136 0 7.5-3.364 7.5-7.5s-3.364-7.5-7.5-7.5h-63.117c-4.143 0-7.5-3.357-7.5-7.5s3.357-7.5 7.5-7.5h12.319l-14.85-72.121c-11.4 2.216-22.488 3.403-32.839 3.403-15.586 0-32.301-1.638-50.594-5.013l10.506 51.023c.836 4.058-1.776 8.023-5.833 8.858-4.058.838-8.023-1.776-8.858-5.833l-11.809-57.35c-22.312-5.07-46.92-12.516-74.535-22.491l-86.821-31.362c-18.149-6.555-38.274-6.954-56.667-1.124l-53.095 16.83c-.081.026-.162.052-.243.076-4.502 1.372-9.437.538-13.236-2.245-3.845-2.814-6.14-7.339-6.14-12.103v-145.31c0-4.764 2.295-9.288 6.14-12.103 3.797-2.779 8.728-3.613 13.224-2.249.088.026.176.054.264.083l53.087 16.826c18.395 5.83 38.516 5.432 56.662-1.122l86.827-31.364c58.179-21.016 103.022-30.804 141.123-30.804 4.143 0 7.5 3.357 7.5 7.5s-3.357 7.5-7.5 7.5c-35.812 0-80.307 9.784-136.027 29.911l-81.875 29.575.001 28.718c0 4.142-3.357 7.5-7.5 7.5-4.142 0-7.5-3.357-7.5-7.5l-.001-23.876c-18.447 4.584-38.065 4.021-56.242-1.739l-15.537-4.925c12.155 16.203 18.879 37.174 18.879 60.724s-6.724 44.521-18.879 60.724l15.538-4.925c18.174-5.76 37.796-6.322 56.246-1.737l-.004-54.244c0-4.143 3.357-7.501 7.499-7.501 4.143 0 7.501 3.357 7.501 7.499l.005 59.087 81.869 29.574c55.72 20.128 100.215 29.912 136.027 29.912 23.085 0 50.166-6.404 75.826-17.168v-202.388c-16.328-6.848-33.345-11.992-49.661-14.81-4.081-.705-6.819-4.585-6.114-8.667.704-4.081 4.581-6.817 8.667-6.114 39.525 6.824 81.204 25.553 111.49 50.101 9.196 7.452 14.472 18.582 14.472 30.533v100.251c0 11.955-5.293 23.099-14.521 30.573-25.54 20.687-59.673 37.212-92.696 45.928l15.541 75.479h35.483c12.406 0 22.5 10.094 22.5 22.5s-10.094 22.5-22.5 22.5h-27.924c-1.412 15.536-12.08 29.243-27.356 34.085l-84.279 26.713c-.755.239-1.519.352-2.27.352zm17.193-61.15 7.795 37.861 57.027-18.075c9.027-2.861 15.458-10.718 16.792-19.786zm-76.089 0h14.569v-45h-14.569zm193.063-341.406v188.647c14.499-7.228 28.151-15.796 39.891-25.305 5.696-4.613 8.963-11.508 8.963-18.917v-4.206h-23.47c-4.143 0-7.5-3.357-7.5-7.5s3.357-7.5 7.5-7.5h23.47v-23.42h-23.47c-4.143 0-7.5-3.357-7.5-7.5s3.357-7.5 7.5-7.5h23.47v-23.42h-23.47c-4.143 0-7.5-3.357-7.5-7.5s3.357-7.5 7.5-7.5h23.47v-4.205c0-7.406-3.25-14.288-8.916-18.88-11.6-9.401-25.284-17.999-39.938-25.294zm-433.152 21.71v145.18c26.021-12.225 41.523-39.284 41.523-72.59s-15.502-60.366-41.523-72.59zm22.589 374.696c-4.143 0-7.5-3.357-7.5-7.5v-32.5h-13.968c-1.896 0-3.722-.719-5.11-2.011-1.136-1.058-11.098-11.04-11.011-35.544.069-19.491 6.431-29.753 9.606-33.663 1.292-2.26 3.726-3.782 6.515-3.782h13.968v-32.5c0-4.143 3.357-7.5 7.5-7.5s7.5 3.357 7.5 7.5v140c0 4.143-3.357 7.5-7.5 7.5zm-17.724-55h10.224v-45h-10.046c-1.921 3.193-4.999 10.222-5.043 22.498-.044 12.242 2.967 19.284 4.865 22.502zm197.724 54.944c-4.143 0-7.5-3.357-7.5-7.5v-38c0-4.143 3.357-7.5 7.5-7.5s7.5 3.357 7.5 7.5v38c0 4.143-3.357 7.5-7.5 7.5zm-30 0c-4.143 0-7.5-3.357-7.5-7.5v-38c0-4.143 3.357-7.5 7.5-7.5s7.5 3.357 7.5 7.5v38c0 4.143-3.357 7.5-7.5 7.5zm-30 0c-4.143 0-7.5-3.357-7.5-7.5v-38c0-4.143 3.357-7.5 7.5-7.5s7.5 3.357 7.5 7.5v38c0 4.143-3.357 7.5-7.5 7.5zm-30 0c-4.143 0-7.5-3.357-7.5-7.5v-38c0-4.143 3.357-7.5 7.5-7.5s7.5 3.357 7.5 7.5v38c0 4.143-3.357 7.5-7.5 7.5zm-30 0c-4.143 0-7.5-3.357-7.5-7.5v-38c0-4.143 3.357-7.5 7.5-7.5s7.5 3.357 7.5 7.5v38c0 4.143-3.357 7.5-7.5 7.5zm-30 0c-4.143 0-7.5-3.357-7.5-7.5v-38c0-4.143 3.357-7.5 7.5-7.5s7.5 3.357 7.5 7.5v38c0 4.143-3.357 7.5-7.5 7.5zm150-101.944c-4.143 0-7.5-3.357-7.5-7.5v-38c0-4.143 3.357-7.5 7.5-7.5s7.5 3.357 7.5 7.5v38c0 4.143-3.357 7.5-7.5 7.5zm-30 0c-4.143 0-7.5-3.357-7.5-7.5v-38c0-4.143 3.357-7.5 7.5-7.5s7.5 3.357 7.5 7.5v38c0 4.143-3.357 7.5-7.5 7.5zm-30 0c-4.143 0-7.5-3.357-7.5-7.5v-38c0-4.143 3.357-7.5 7.5-7.5s7.5 3.357 7.5 7.5v38c0 4.143-3.357 7.5-7.5 7.5zm-30 0c-4.143 0-7.5-3.357-7.5-7.5v-38c0-4.143 3.357-7.5 7.5-7.5s7.5 3.357 7.5 7.5v38c0 4.143-3.357 7.5-7.5 7.5zm-30 0c-4.143 0-7.5-3.357-7.5-7.5v-38c0-4.143 3.357-7.5 7.5-7.5s7.5 3.357 7.5 7.5v38c0 4.143-3.357 7.5-7.5 7.5zm-30 0c-4.143 0-7.5-3.357-7.5-7.5v-38c0-4.143 3.357-7.5 7.5-7.5s7.5 3.357 7.5 7.5v38c0 4.143-3.357 7.5-7.5 7.5z"/></g></svg>