<?xml version="1.0" encoding="iso-8859-1"?>
<!-- Generator: Adobe Illustrator 21.0.0, SVG Export Plug-In . SVG Version: 6.00 Build 0)  -->
<svg xmlns="http://www.w3.org/2000/svg" xmlns:xlink="http://www.w3.org/1999/xlink" version="1.1" id="Capa_1" x="0px" y="0px" viewBox="0 0 511.783 511.783" style="enable-background:new 0 0 511.783 511.783;" xml:space="preserve" width="512" height="512">
<g>
	<path d="M308.241,302.19c-30.329-14.234-72.752-14.826-104.273-0.986c-11.207,4.919-13.036,20.111-3.265,27.537   c20.212,15.348,43.055,23.378,55.174,23.378c12.12,0,34.964-8.03,55.138-23.352c0.029-0.022,0.059-0.044,0.087-0.066   C320.362,321.613,318.815,307.153,308.241,302.19z M301.948,316.818c-18.451,14.002-38.046,20.301-46.071,20.301   c-8.029,0-27.642-6.306-46.106-20.328c-0.654-0.498-0.546-1.513,0.227-1.853c27.537-12.089,65.411-11.587,91.871,0.831   C302.233,315.94,302.386,316.471,301.948,316.818z"/>
	<path d="M508.734,433.831c-15.638-11.973-34.321-18.301-54.031-18.301H347.777c1.602-1.992,2.473-4.451,2.473-7.044   c0-0.253-0.009-0.504-0.025-0.754l16.983-16.984l18.168,18.168c4.461,4.46,11.715,4.46,16.177,0l24.88-24.879   c4.459-4.46,4.459-11.716,0-16.176l-48.855-48.855c13.234-24.575,11.779-43.18,12.582-48.212   c32.64-1.453,58.747-28.462,58.747-61.455v-3.177c0-20.154-16.396-36.551-36.551-36.551h-14.744l1.165-15.815   C404.864,71.149,339.735,0,255.892,0c-35.95,0-70.319,13.36-96.774,37.619c-3.054,2.799-3.259,7.543-0.46,10.597   c2.801,3.053,7.545,3.258,10.597,0.459C192.937,26.959,223.705,15,255.892,15c19.334,0,37.897,4.184,54.741,12.136   c17.103,79.803-50.227,152.08-130.449,141.458c-9.351-1.237-18.423,4.585-21.101,13.544c-4.266,14.272-13.84,26.546-26.422,34.314   l-2.935-39.856c-0.002-0.036-0.005-0.072-0.008-0.108l-1.753-23.795c-2.054-27.896,4.799-55.035,19.814-78.483   c2.234-3.488,1.218-8.127-2.271-10.361c-3.489-2.234-8.127-1.218-10.36,2.271c-16.779,26.201-24.437,56.519-22.143,87.675   l1.165,15.815H99.426c-20.154,0-36.551,16.396-36.551,36.551v3.177c0,32.993,26.108,60.002,58.748,61.455   c1.148,3.103-4.374,52.895,57.624,97.459v43.119c0,2.293-1.865,4.159-4.158,4.159h-25.124c-4.143,0-7.5,3.358-7.5,7.5   s3.357,7.5,7.5,7.5h25.124c10.563,0,19.158-8.595,19.158-19.159v-33.398c22.023,12.813,44.828,20.013,61.645,20.013   c15.673,0,35.592-6.153,54.886-16.303l-62.485,62.485c-4.402,4.403-4.401,11.526,0,15.929l19.541,19.542   c4.404,4.402,11.526,4.402,15.93,0l6.08-6.08c2.929-2.929,2.929-7.678,0-10.606c-2.93-2.929-7.678-2.929-10.607,0l-3.438,3.438   l-14.257-14.257l57.904-57.904l14.257,14.257c0.096-0.101-23.898,23.898-29.718,29.718c-2.929,2.929-2.929,7.678,0,10.606   c2.93,2.929,7.678,2.929,10.607,0l18.604-18.604c1.151,0.214,2.323,0.323,3.499,0.323h118.009c15.166,0,29.601,4.506,41.972,13.069   v53.184H15.108v-53.184c12.371-8.563,26.806-13.069,41.972-13.069h57.885c4.143,0,7.5-3.358,7.5-7.5s-3.357-7.5-7.5-7.5H57.08   c-19.71,0-38.394,6.329-54.031,18.301c-1.854,1.419-2.94,3.621-2.94,5.955v64.497c0,4.142,3.357,7.5,7.5,7.5h496.566   c4.143,0,7.5-3.358,7.5-7.5v-64.497C511.675,437.452,510.588,435.25,508.734,433.831z M354.34,364.781   c2.435-2.434,6.373-2.435,8.811,0.001c2.433,2.432,2.436,6.375-0.001,8.811l-21.563,21.564l-8.812-8.812L354.34,364.781z    M393.464,395.791l-16.201-16.202c4.439-7.874,3.542-18.367-3.506-25.414c-7.035-7.036-17.523-7.956-25.414-3.506l-16.202-16.202   l19.843-19.843l10.836,10.836c0.066,0.068,0.133,0.135,0.201,0.201l50.287,50.287L393.464,395.791z M412.356,184.61   c11.883,0,21.551,9.667,21.551,21.551v3.177c0,24.343-18.795,44.377-42.635,46.355c2.302-31.249,3.927-53.32,5.235-71.083H412.356z    M383.818,152.694l-1.753,23.795c-0.003,0.036-0.005,0.072-0.008,0.108l-2.93,39.784c-19.379-12.014-31.293-34.301-28.602-58.446   c0.713-6.393-1.801-12.753-6.725-17.013c-11.257-9.741-20.43-21.304-27.304-34.409c9.953-21.961,13.614-46.063,10.883-69.84   C364.434,61.698,387.351,104.727,383.818,152.694z M173.454,186.434c0.591-1.974,2.646-3.249,4.761-2.97   c52.263,6.918,102.625-17.727,129.928-61.375c7.025,11.27,15.681,21.383,25.844,30.177c1.187,1.027,1.797,2.525,1.631,4.008   c-2.914,26.169,7.89,50.466,26.588,66.285c-0.45,0.25-0.896,0.511-1.337,0.785c-15.205,9.453-13.968,25.65-14.314,26.888   c-1.095,14.861-16.028,24.763-30.154,19.927c-47.075-16.123-105.777-12.65-148.83,11.589c-0.099-1.341-2.587-34.882-2.604-35.116   c-0.069-0.214-0.329-14.699-14.029-23.232c-0.434-0.271-0.874-0.529-1.317-0.776C160.793,213.192,169.22,200.603,173.454,186.434z    M77.875,209.338v-3.177c0-11.883,9.668-21.551,21.551-21.551h15.85c2.311,31.378,2.914,39.564,5.235,71.083   C96.67,253.715,77.875,233.681,77.875,209.338z M137.197,278.047c-0.133-1.808-2.467-33.493-3.255-44.19   c3.148-0.218,6.294,0.55,9.063,2.274c4.093,2.549,6.645,6.777,7,11.599l0.012-0.001c0.011,0.377,3.501,47.372,3.509,47.472   c0.412,5.776,6.958,8.928,11.733,5.644c40.519-27.892,100.247-32.262,146.279-16.497c23.366,8.003,48.156-8.333,49.974-33.018   c0.391-1.563-0.88-10.178,7.275-15.25c2.768-1.722,5.913-2.489,9.056-2.272c-3.504,47.575-2.553,55.562-11.417,74.044l-6.354-6.354   c-4.461-4.46-11.717-4.46-16.178,0l-24.879,24.879c-4.459,4.46-4.459,11.716,0,16.176l9.812,9.813   c-25.964,20.125-55.654,30.619-72.936,30.619C216.585,382.986,141.584,337.613,137.197,278.047z"/>
</g>













</svg>
