<?xml version="1.0" encoding="iso-8859-1"?>
<!-- Generator: Adobe Illustrator 19.0.0, SVG Export Plug-In . SVG Version: 6.00 Build 0)  -->
<svg version="1.1" id="Capa_1" xmlns="http://www.w3.org/2000/svg" xmlns:xlink="http://www.w3.org/1999/xlink" x="0px" y="0px"
	 viewBox="0 0 505.458 505.458" style="enable-background:new 0 0 505.458 505.458;" xml:space="preserve">
<g>
	<g>
		<g>
			<path d="M482.704,310.83c-13.496-10.715-31.189-14.585-47.927-10.483c-45.561,11.082-109.889,17.18-181.13,17.18
				c-27.854,0-54.589-0.962-79.62-2.759l57.706-57.7c12.906-13.181,30-21.455,48.344-23.402l8.479-0.672
				c1.991-0.158,3.859-1.021,5.271-2.434l119.271-119.271c3.227-3.18,5.227-7.398,5.648-11.91c0.461-4.758-1.208-9.475-4.558-12.885
				l-29.713-29.713c-7.157-6.52-18.237-6.033-24.795,1.09L109.874,307.68c-13.494-2.125-26.013-4.574-37.363-7.334
				c-16.736-4.092-34.423-0.223-47.922,10.483C9.982,322.45,1.582,340.182,1.843,358.846c-0.06,15.202,5.508,29.888,15.631,41.23
				l-8.557,8.557C-2.061,418.5-3.036,435.37,6.733,446.436c4.478,4.435,10.546,6.894,16.848,6.828
				c7.891-0.169,15.407-3.399,20.959-9.008l21.224-21.22c46.798,11.778,113.224,18.392,187.883,18.392
				c89.598,0,167.451-9.5,213.59-26.057c23.358-8.93,38.631-31.521,38.213-56.525v-0.328
				C505.636,339.963,497.241,322.362,482.704,310.83z M371.548,69.74c0.652-0.648,1.283-0.787,1.139-1.008l29.336,29.123
				c-0.053,0.605-0.338,1.166-0.795,1.566l-10.39,10.39l-44.715-14.646L371.548,69.74z M332.82,108.469l44.715,14.645
				l-21.771,21.771l-44.714-14.646L332.82,108.469z M297.746,143.543l44.715,14.645l-21.777,21.777l-44.715-14.644L297.746,143.543z
				 M262.665,178.624l44.715,14.644l-23.233,23.233l-5.455,0.434c-22.337,2.187-43.181,12.204-58.844,28.279l-67.739,67.731
				c-7.323-0.707-14.485-1.482-21.417-2.346L262.665,178.624z M32.728,432.33c-3.425,4.279-9.543,5.249-14.123,2.238
				c-3.066-4.537-2.115-10.67,2.18-14.066l9.744-9.744c3.016,1.842,6.204,3.387,9.518,4.613c2.309,0.829,4.756,1.627,7.222,2.42
				L32.728,432.33z M461.569,399.567c-44.393,15.934-120.18,25.074-207.922,25.074c-87.746,0-163.533-9.139-207.93-25.074
				c-16.779-6.605-27.614-23.024-27.086-41.049c-0.173-13.4,5.855-26.128,16.332-34.484c9.452-7.518,21.85-10.242,33.582-7.377
				c46.828,11.385,112.561,17.656,185.102,17.656s138.275-6.271,185.098-17.656c11.734-2.862,24.132-0.138,33.586,7.377
				c10.477,8.356,16.505,21.084,16.332,34.484v0.328C489.089,376.766,478.262,393.038,461.569,399.567z"/>
			<path d="M85.778,340.707c-13.907,0-25.18,11.274-25.18,25.18c0,13.907,11.274,25.18,25.18,25.18s25.18-11.274,25.18-25.18
				C110.943,351.987,99.678,340.722,85.778,340.707z M85.778,374.28c-4.636,0-8.393-3.758-8.393-8.393s3.758-8.393,8.393-8.393
				s8.393,3.758,8.393,8.393C94.166,370.521,90.411,374.276,85.778,374.28z"/>
			<path d="M421.515,340.707c-13.907,0-25.18,11.274-25.18,25.18c0,13.907,11.274,25.18,25.18,25.18
				c13.907,0,25.18-11.274,25.18-25.18C446.68,351.987,435.416,340.722,421.515,340.707z M421.515,374.28
				c-4.636,0-8.393-3.758-8.393-8.393s3.758-8.393,8.393-8.393s8.393,3.758,8.393,8.393
				C429.904,370.521,426.149,374.276,421.515,374.28z"/>
		</g>
	</g>
</g>
<g>
</g>
<g>
</g>
<g>
</g>
<g>
</g>
<g>
</g>
<g>
</g>
<g>
</g>
<g>
</g>
<g>
</g>
<g>
</g>
<g>
</g>
<g>
</g>
<g>
</g>
<g>
</g>
<g>
</g>
</svg>
