<svg width="428" height="285" viewBox="0 0 428 285" fill="none" xmlns="http://www.w3.org/2000/svg">
<g clip-path="url(#clip0_153_75)">
<path d="M216.43 80.1022C212.603 73.7727 208.068 67.0147 200.966 64.9479C192.742 62.5545 184.293 67.3092 177.127 72.001C155.695 86.0328 135.056 101.239 115.305 117.551L115.326 117.797C130.704 116.736 146.081 115.676 161.459 114.615C172.569 113.849 184.061 112.977 193.88 107.721C197.605 105.727 201.237 103.063 205.459 102.877C210.704 102.646 215.278 106.31 218.872 110.137C240.133 132.777 246.285 167.399 270.138 187.29C255.097 150.197 237.138 114.355 216.43 80.1022Z" fill="#F2F2F2"/>
<path d="M347.117 272.13C344.766 269.161 343.805 268.465 341.486 265.469C322.603 241.046 304.854 215.798 288.24 189.726C276.954 172.018 266.229 153.97 256.063 135.582C251.223 126.841 246.516 118.03 241.942 109.151C238.392 102.267 234.922 95.3411 231.53 88.3742C230.56 86.3843 229.618 84.3853 228.68 82.3817C226.471 77.67 224.303 72.9355 221.974 68.2878C219.321 62.9906 216.092 57.4372 211.22 53.8783C209.003 52.1922 206.351 51.172 203.576 50.937C199.61 50.6808 195.95 52.3185 192.51 54.1071C167.342 67.2311 143.779 83.6854 122.466 102.409C101.099 121.174 82.001 142.374 65.5602 165.577C65.0572 166.295 63.8677 165.609 64.3755 164.886C66.3745 162.059 68.4132 159.263 70.4915 156.497C96.3339 122.127 128.02 92.5712 164.103 69.1798C170.173 65.2458 176.358 61.4963 182.657 57.9313C185.831 56.1335 189.02 54.3586 192.263 52.6936C195.442 51.0605 198.818 49.5921 202.45 49.5372C214.811 49.3451 221.21 63.3428 225.606 72.7616C226.988 75.7259 228.386 78.6809 229.801 81.6269C235.149 92.8114 240.702 103.894 246.461 114.874C250.016 121.653 253.648 128.393 257.358 135.093C268.903 155.957 281.175 176.399 294.173 196.418C311.391 222.936 328.472 246.362 348.087 271.16C348.627 271.846 347.662 272.825 347.117 272.13Z" fill="#E4E4E4"/>
<path d="M121.245 95.4966C120.527 94.6961 119.813 93.8956 119.09 93.0951C113.391 86.7915 107.275 80.5611 99.4477 76.9473C95.7157 75.1698 91.6417 74.2254 87.5083 74.1797C83.2359 74.1935 79.0595 75.3142 75.1118 76.8832C73.2453 77.6289 71.42 78.4751 69.6224 79.3763C67.5684 80.4101 65.551 81.5126 63.543 82.6242C59.7735 84.7101 56.053 86.8875 52.3814 89.1565C45.0759 93.6714 37.9992 98.531 31.1513 103.735C27.6014 106.434 24.1248 109.222 20.7214 112.097C17.556 114.769 14.4545 117.512 11.4171 120.327C10.7675 120.926 9.7977 119.956 10.4472 119.357C11.2478 118.611 12.0575 117.87 12.8671 117.138C15.1544 115.071 17.4782 113.043 19.8387 111.054C24.1431 107.422 28.559 103.93 33.0863 100.579C40.1264 95.364 47.4089 90.5029 54.9337 85.9955C58.694 83.7449 62.5061 81.5888 66.3698 79.5273C67.5365 78.9051 68.7167 78.2967 69.9106 77.7203C72.6196 76.3539 75.4343 75.2081 78.3275 74.2941C82.4258 72.9683 86.7619 72.5423 91.0399 73.0453C95.1704 73.6461 99.15 75.0228 102.769 77.1028C110.454 81.3982 116.414 88.0403 122.215 94.5223C122.8 95.181 121.835 96.1553 121.245 95.4966Z" fill="#E4E4E4"/>
<path d="M278.708 160.819L297.123 154.083L306.266 150.739C309.244 149.65 312.215 148.41 315.293 147.63C317.968 146.866 320.809 146.902 323.463 147.734C325.831 148.61 327.998 149.954 329.836 151.684C331.714 153.414 333.461 155.279 335.063 157.266C337.054 159.659 339.015 162.076 340.985 164.485C349.116 174.429 357.193 184.416 365.218 194.446C373.242 204.476 381.213 214.548 389.129 224.663C397.066 234.803 404.947 244.985 412.775 255.209C413.733 256.462 414.691 257.715 415.649 258.969C416.177 259.661 417.37 258.979 416.834 258.276C408.949 247.949 401.009 237.664 393.014 227.421C385 217.154 376.93 206.93 368.805 196.75C360.68 186.57 352.5 176.434 344.265 166.342C342.213 163.828 340.158 161.317 338.1 158.808C336.364 156.692 334.647 154.553 332.743 152.584C329.247 148.968 324.88 145.773 319.652 145.687C316.578 145.636 313.603 146.611 310.748 147.644C307.669 148.758 304.598 149.892 301.523 151.017L282.979 157.8L278.343 159.495C277.52 159.796 277.876 161.123 278.708 160.819L278.708 160.819Z" fill="#E4E4E4"/>
<path d="M97.0243 84.8791C87.666 80.0695 75.6816 81.0115 67.082 87.0204C83.485 89.8503 99.7085 93.6368 115.669 98.3605C109.041 94.4763 103.857 88.3908 97.0243 84.8791Z" fill="#F2F2F2"/>
<path d="M66.9896 87.0038L65.188 88.4681C65.7974 87.9556 66.4309 87.4751 67.0817 87.0204C67.0509 87.015 67.0203 87.0091 66.9896 87.0038Z" fill="#F2F2F2"/>
<path d="M329.142 160.886C327.33 158.679 325.37 156.369 322.658 155.473L320.127 155.572C339.397 189.623 365.423 219.377 396.607 243.007C374.119 215.633 351.631 188.259 329.142 160.886Z" fill="#F2F2F2"/>
<path d="M171.727 142.683C172.898 146.939 175.537 150.644 179.177 153.141C180.585 154.099 182.249 155.018 182.731 156.651C182.984 157.692 182.828 158.791 182.295 159.72C181.763 160.638 181.115 161.483 180.368 162.236L180.3 162.491C176.808 160.422 173.486 157.804 171.556 154.232C169.627 150.661 169.358 145.979 171.727 142.683" fill="#F2F2F2"/>
<path d="M287.993 243.979C289.164 248.235 291.803 251.94 295.443 254.437C296.851 255.395 298.516 256.314 298.997 257.947C299.25 258.988 299.094 260.087 298.561 261.016C298.029 261.934 297.381 262.779 296.634 263.532L296.566 263.787C293.074 261.718 289.752 259.1 287.823 255.528C285.894 251.957 285.624 247.275 287.993 243.979" fill="#F2F2F2"/>
<path d="M55.9601 236.993C57.1316 241.249 59.7707 244.954 63.4107 247.451C64.8179 248.409 66.4829 249.328 66.9643 250.961C67.2175 252.002 67.0615 253.101 66.5284 254.03C65.9962 254.948 65.3487 255.793 64.6016 256.546L64.5334 256.801C61.0412 254.732 57.7189 252.114 55.7899 248.542C53.8608 244.971 53.5915 240.29 55.9601 236.993" fill="#F2F2F2"/>
<path d="M322.972 50.8975C337.027 50.8975 348.42 39.5037 348.42 25.4487C348.42 11.3938 337.027 0 322.972 0C308.917 0 297.523 11.3938 297.523 25.4487C297.523 39.5037 308.917 50.8975 322.972 50.8975Z" fill="#FAC172"/>
<path d="M368.897 5.92329C356.564 4.25618 342.483 10.9226 339.286 22.9508C338.481 20.8121 337.016 18.985 335.104 17.7333C333.192 16.4816 330.931 15.8701 328.649 15.9872C326.367 16.1043 324.181 16.944 322.407 18.3848C320.633 19.8257 319.363 21.7931 318.781 24.003L320.193 25.0143C346.623 30.7299 373.983 30.6062 400.361 24.6518C391.782 15.6355 381.231 7.59037 368.897 5.92329Z" fill="#F0F0F0"/>
<path d="M316.004 39.8549C303.67 38.1878 289.589 44.8542 286.393 56.8824C285.587 54.7438 284.122 52.9166 282.21 51.6649C280.298 50.4132 278.038 49.8017 275.756 49.9189C273.473 50.036 271.287 50.8756 269.513 52.3165C267.74 53.7573 266.47 55.7248 265.887 57.9346L267.299 58.9459C293.73 64.6616 321.089 64.5379 347.467 58.5835C338.888 49.5672 328.337 41.522 316.004 39.8549Z" fill="#F0F0F0"/>
<path d="M423.651 46.2709C423.599 46.271 423.549 46.2631 423.5 46.2475C291.562 4.52246 175.278 9.97875 100.96 21.9035C90.8457 23.5257 80.7047 25.3993 70.8184 27.4728C68.2944 28.0015 65.6759 28.5683 63.0357 29.1584C59.8826 29.8606 56.7715 30.5837 53.7882 31.3069C52.4998 31.6119 51.2366 31.9194 49.9985 32.2294C48.1231 32.6923 46.2202 33.1747 44.1804 33.7049C41.901 34.2926 39.5851 34.909 37.2955 35.5371C37.2872 35.5401 37.2786 35.5425 37.27 35.5444L37.2702 35.5449C34.6841 36.251 32.1116 36.9776 29.624 37.7032C28.2776 38.0921 26.9775 38.4756 25.7322 38.8542C25.593 38.8927 25.4698 38.9297 25.3448 38.9677L25.0772 39.0491C24.9223 39.0964 24.7693 39.1427 24.6162 39.1865L24.6065 39.1894L24.6067 39.1899L24.2018 39.3157C23.7189 39.4619 23.2477 39.6047 22.7842 39.747C10.5364 43.5226 3.80342 46.2085 3.7369 46.2349C3.67608 46.2592 3.61105 46.2714 3.54553 46.2706C3.48 46.2699 3.41526 46.2562 3.35501 46.2305C3.29476 46.2047 3.24017 46.1673 3.19437 46.1205C3.14857 46.0736 3.11245 46.0182 3.08807 45.9573C3.06368 45.8965 3.05153 45.8315 3.05228 45.766C3.05303 45.7004 3.06668 45.6357 3.09245 45.5755C3.11822 45.5152 3.1556 45.4606 3.20247 45.4148C3.24933 45.369 3.30476 45.3329 3.36558 45.3085C3.43259 45.2822 10.1985 42.5826 22.4909 38.7928C22.956 38.65 23.4285 38.5073 23.9128 38.3606L24.289 38.2436C24.3019 38.2388 24.3148 38.2349 24.328 38.231C24.4803 38.1876 24.6323 38.1413 24.7868 38.0945L25.0548 38.0131C25.1883 37.9727 25.3199 37.9327 25.4546 37.8957C26.6914 37.5195 27.9959 37.135 29.3457 36.7447C31.8344 36.0186 34.4093 35.2921 36.9973 34.585C37.0054 34.5821 37.0136 34.5801 37.0217 34.5777V34.5772C39.3193 33.9471 41.6437 33.3282 43.9304 32.7386C45.9734 32.2079 47.8799 31.7245 49.7585 31.2606C51.0018 30.9512 52.2675 30.643 53.5555 30.3362C56.5422 29.6121 59.6597 28.888 62.8184 28.1843C65.4627 27.5937 68.0856 27.0255 70.6137 26.4963C80.5154 24.4194 90.6722 22.5428 100.801 20.9182C175.226 8.97639 291.677 3.5113 423.801 45.2963C423.914 45.3321 424.011 45.4075 424.074 45.5087C424.137 45.6098 424.162 45.7302 424.144 45.8479C424.125 45.9657 424.066 46.0731 423.975 46.1507C423.885 46.2282 423.77 46.2709 423.651 46.2709Z" fill="#CCCCCC"/>
<path d="M130.23 209.498C130.057 208.993 129.767 208.536 129.382 208.166C129.24 208.034 129.086 207.915 128.923 207.811C127.62 206.943 125.674 206.749 124.437 207.811C124.312 207.92 124.197 208.038 124.093 208.166C123.723 208.62 123.344 209.064 122.955 209.498C122.316 210.227 121.662 210.93 120.979 211.614C120.784 211.803 120.59 211.998 120.39 212.188C120.275 212.302 120.16 212.412 120.046 212.522C119.607 212.941 119.157 213.345 118.703 213.744C118.464 213.959 118.224 214.169 117.98 214.373C117.616 214.678 117.251 214.982 116.882 215.276C116.847 215.301 116.812 215.326 116.777 215.356C116.767 215.361 116.762 215.371 116.752 215.376C116.747 215.376 116.742 215.376 116.737 215.386C116.724 215.392 116.712 215.4 116.702 215.411C116.593 215.486 116.518 215.536 116.463 215.581C116.483 215.571 116.503 215.556 116.523 215.546C116.433 215.616 116.338 215.686 116.248 215.755C115.375 216.399 114.482 217.018 113.569 217.597C111.309 219.043 108.936 220.303 106.473 221.364C106.308 221.429 106.139 221.499 105.969 221.564C99.5193 224.206 92.5229 225.237 85.5851 224.568C84.8765 224.513 84.1679 224.438 83.4593 224.343C82.641 224.223 81.8276 224.079 81.0193 223.914C77.9418 223.3 74.9306 222.391 72.0274 221.199C68.3957 219.536 64.9417 217.51 61.7181 215.152C61.2191 214.797 60.7152 214.443 60.2112 214.099C60.785 212.692 61.3489 211.284 61.8978 209.867C62.1722 209.184 62.4367 208.5 62.6962 207.811C64.7371 202.507 66.6532 197.153 68.4895 191.779C70.3458 186.335 72.0972 180.859 73.7439 175.352C73.9136 174.793 74.0783 174.234 74.2379 173.675C75.1012 170.766 75.9295 167.85 76.7229 164.928C76.7978 164.643 76.8776 164.364 76.9475 164.08C77.177 163.241 77.4015 162.403 77.6211 161.565C78.1201 159.673 76.9924 157.413 75.0064 156.959C74.0502 156.714 73.0361 156.849 72.1779 157.337C71.3197 157.825 70.6843 158.627 70.4056 159.574C70.1911 160.382 69.9765 161.185 69.7569 161.994C68.7041 165.901 67.5963 169.795 66.4336 173.675C66.264 174.234 66.0943 174.793 65.9247 175.352C63.3598 183.805 60.5438 192.173 57.4767 200.456C57.1074 201.459 56.7332 202.459 56.3539 203.455C56.1693 203.944 55.9847 204.433 55.7951 204.922C55.4308 205.885 55.0566 206.848 54.6823 207.811C54.4677 208.375 54.2482 208.939 54.0286 209.498C53.8839 209.852 53.7442 210.207 53.6045 210.556C52.1817 210.045 50.7077 209.69 49.2083 209.498L48.9688 209.468C47.8064 209.328 46.6307 209.338 45.4708 209.498C43.7349 209.701 42.0646 210.282 40.5781 211.201C39.0915 212.12 37.8251 213.355 36.8682 214.817C34.488 218.565 34.5179 223.924 37.8562 227.108C41.2943 230.386 46.4988 230.361 50.5456 228.31C52.6902 227.15 54.4985 225.455 55.7951 223.39C56.2918 222.642 56.7482 221.867 57.1623 221.07C57.2671 221.14 57.3719 221.209 57.4767 221.284C57.8759 221.564 58.2751 221.848 58.6693 222.128C60.9662 223.792 63.3867 225.278 65.9097 226.574C71.3347 229.271 77.1745 231.037 83.1849 231.798C83.3196 231.813 83.4494 231.833 83.5841 231.848C84.2478 231.933 84.9164 231.998 85.5851 232.053C95.1768 232.775 104.78 230.813 113.319 226.384C114.043 226.01 114.76 225.617 115.47 225.206C116.573 224.568 117.65 223.889 118.703 223.17C119.277 222.781 119.836 222.387 120.39 221.973C122.81 220.19 125.067 218.195 127.131 216.01C127.915 215.187 128.665 214.337 129.382 213.46C130.06 212.743 130.451 211.802 130.48 210.815C130.476 210.365 130.391 209.919 130.23 209.498ZM47.6016 221.384C47.7064 221.309 47.8111 221.229 47.9109 221.15C47.881 221.224 47.7363 221.309 47.6016 221.384H47.6016ZM49.2033 219.772C49.0886 219.902 48.9838 220.032 48.869 220.162C48.5199 220.552 48.1448 220.919 47.7463 221.259C47.6914 221.309 47.6315 221.359 47.5716 221.404C47.571 221.404 47.5703 221.404 47.5697 221.404C47.5691 221.405 47.5685 221.405 47.5681 221.405C47.5676 221.406 47.5672 221.406 47.567 221.407C47.5667 221.408 47.5666 221.408 47.5666 221.409C47.4946 221.441 47.4246 221.478 47.357 221.519C47.1425 221.649 46.9229 221.768 46.6984 221.878C46.2587 222.04 45.8064 222.165 45.3461 222.252C44.9924 222.278 44.6374 222.281 44.2833 222.262H44.2733C44.0289 222.208 43.7874 222.141 43.5497 222.063C43.43 222.003 43.3152 221.933 43.2004 221.863C43.1555 221.823 43.1156 221.783 43.0906 221.758C43.0419 221.714 42.9969 221.665 42.956 221.614C42.956 221.613 42.9558 221.612 42.9556 221.612C42.9553 221.611 42.955 221.611 42.9545 221.61C42.9541 221.61 42.9535 221.609 42.9529 221.609C42.9523 221.609 42.9516 221.609 42.951 221.609C42.896 221.509 42.8362 221.409 42.7813 221.309C42.7785 221.307 42.7767 221.303 42.7763 221.299C42.7364 221.175 42.7015 221.045 42.6715 220.915C42.6607 220.687 42.6624 220.459 42.6765 220.231C42.7435 219.913 42.8335 219.599 42.946 219.293C43.047 219.076 43.162 218.866 43.2903 218.665C43.3003 218.645 43.3502 218.565 43.405 218.475C43.41 218.47 43.41 218.47 43.41 218.465C43.4849 218.38 43.5597 218.29 43.6396 218.21C43.7743 218.061 43.919 217.931 44.0637 217.796C44.3452 217.612 44.6367 217.444 44.937 217.292C45.4133 217.123 45.9022 216.991 46.399 216.898C47.1317 216.84 47.8681 216.847 48.5996 216.918C49.2924 217.038 49.976 217.207 50.6455 217.422C50.2397 218.209 49.7778 218.967 49.2632 219.687C49.2433 219.717 49.2233 219.747 49.2033 219.772ZM43.6545 218.131C43.6106 218.201 43.5587 218.266 43.4998 218.325C43.5394 218.252 43.5918 218.186 43.6545 218.131Z" fill="#3F3D56"/>
<path d="M115.23 158.536C115.185 160.103 115.14 161.669 115.095 163.236C115.001 166.714 114.903 170.194 114.801 173.675C114.696 177.592 114.587 181.508 114.472 185.422C114.417 187.442 114.36 189.463 114.302 191.484C114.147 196.928 113.994 202.371 113.843 207.811C113.828 208.375 113.808 208.934 113.793 209.498C113.718 212.198 113.643 214.897 113.569 217.597C113.484 220.526 113.401 223.455 113.319 226.384C113.259 228.58 113.198 230.777 113.134 232.976C112.685 248.909 112.236 264.842 111.787 280.774C111.768 281.761 111.368 282.702 110.67 283.4C109.972 284.098 109.031 284.498 108.045 284.517C107.055 284.509 106.107 284.112 105.407 283.412C104.707 282.712 104.31 281.765 104.302 280.774C104.552 271.813 104.805 262.851 105.061 253.889C105.285 245.785 105.513 237.681 105.744 229.578C105.819 226.908 105.894 224.237 105.969 221.564C106.084 217.542 106.197 213.52 106.308 209.498C106.323 208.934 106.343 208.375 106.358 207.811C106.368 207.317 106.383 206.828 106.398 206.334C106.618 198.525 106.837 190.714 107.057 182.902C107.147 179.828 107.233 176.752 107.316 173.675C107.416 170.167 107.516 166.661 107.616 163.156C107.66 161.614 107.7 160.078 107.745 158.536C107.764 157.549 108.165 156.608 108.862 155.91C109.56 155.213 110.501 154.812 111.488 154.793C112.478 154.801 113.425 155.198 114.125 155.898C114.825 156.598 115.222 157.546 115.23 158.536Z" fill="#3F3D56"/>
<path d="M320.531 159.574C316.607 174.434 311.916 189.081 306.479 203.456C304.978 207.422 303.443 211.379 301.802 215.289L302.18 214.395C301.447 216.257 300.512 218.033 299.39 219.69C299.314 219.797 299.237 219.902 299.158 220.007C299.545 219.512 299.619 219.414 299.378 219.713C299.252 219.863 299.127 220.014 298.995 220.16C298.646 220.551 298.271 220.919 297.873 221.26C297.773 221.345 297.671 221.429 297.568 221.511L298.036 221.148C297.982 221.276 297.6 221.446 297.482 221.518C297.097 221.75 296.696 221.953 296.282 222.126L297.176 221.749C296.497 222.023 295.788 222.217 295.064 222.328L296.059 222.194C295.348 222.293 294.628 222.3 293.915 222.217L294.91 222.351C294.326 222.271 293.755 222.117 293.21 221.894L294.104 222.271C293.814 222.144 293.534 221.995 293.267 221.824C293.131 221.735 292.715 221.42 293.259 221.836C293.825 222.268 293.332 221.873 293.216 221.758C293.119 221.662 293.031 221.559 292.936 221.461C292.496 221.01 293.433 222.238 293.134 221.71C292.974 221.445 292.828 221.173 292.696 220.893L293.073 221.787C292.902 221.362 292.78 220.918 292.71 220.464L292.844 221.459C292.772 220.895 292.772 220.324 292.842 219.76L292.709 220.755C292.8 220.125 292.967 219.509 293.205 218.919L292.828 219.813C292.994 219.416 293.19 219.032 293.415 218.666C293.519 218.476 293.641 218.297 293.779 218.131C293.803 218.139 293.146 218.886 293.495 218.509C293.586 218.41 293.672 218.306 293.764 218.208C293.912 218.052 294.07 217.909 294.226 217.76C294.747 217.264 293.496 218.242 294.098 217.85C294.534 217.563 294.993 217.313 295.47 217.102L294.576 217.479C295.375 217.151 296.212 216.926 297.068 216.81L296.073 216.944C297.145 216.821 298.228 216.834 299.297 216.982L298.302 216.849C299.656 217.054 300.978 217.426 302.24 217.956L301.346 217.579C304.036 218.734 306.417 220.448 308.795 222.129C311.092 223.792 313.512 225.278 316.034 226.573C321.459 229.271 327.299 231.037 333.31 231.799C341.93 232.855 350.678 231.73 358.75 228.525C366.822 225.321 373.96 220.141 379.51 213.46C380.187 212.742 380.577 211.801 380.606 210.814C380.599 209.823 380.206 208.874 379.51 208.168C378.137 206.907 375.543 206.552 374.217 208.168C372.96 209.702 371.609 211.156 370.172 212.522C369.501 213.159 368.812 213.776 368.105 214.374C367.701 214.715 367.292 215.049 366.877 215.377C366.681 215.532 366.069 215.945 367.008 215.279C366.793 215.431 366.587 215.598 366.374 215.755C363.232 218.072 359.826 220.009 356.229 221.526L357.123 221.149C353.262 222.768 349.208 223.879 345.061 224.453L346.056 224.32C341.79 224.881 337.469 224.874 333.205 224.301L334.2 224.434C329.937 223.849 325.768 222.713 321.797 221.056L322.691 221.433C318.858 219.738 315.222 217.631 311.844 215.15C310.086 213.849 308.233 212.682 306.299 211.66C304.046 210.51 301.607 209.768 299.094 209.47C294.385 208.916 289.585 210.751 286.996 214.82C284.613 218.565 284.644 223.923 287.981 227.108C291.418 230.387 296.622 230.36 300.673 228.308C304.574 226.332 306.917 222.228 308.564 218.357C312.273 209.647 315.555 200.736 318.614 191.779C321.64 182.918 324.384 173.967 326.847 164.927C327.152 163.807 327.452 162.686 327.748 161.564C328.248 159.673 327.119 157.412 325.135 156.96C324.178 156.714 323.163 156.849 322.304 157.337C321.445 157.824 320.81 158.627 320.531 159.574L320.531 159.574Z" fill="#3F3D56"/>
<path d="M357.872 158.535L356.525 206.336L355.185 253.887L354.427 280.775C354.436 281.765 354.833 282.712 355.533 283.412C356.233 284.112 357.18 284.509 358.17 284.517C359.156 284.498 360.097 284.098 360.795 283.4C361.493 282.702 361.893 281.761 361.912 280.775L363.259 232.974L364.599 185.423L365.357 158.535C365.349 157.546 364.952 156.599 364.252 155.898C363.552 155.198 362.605 154.801 361.615 154.793C360.628 154.812 359.687 155.213 358.989 155.91C358.292 156.608 357.891 157.549 357.872 158.535Z" fill="#3F3D56"/>
<path opacity="0.2" d="M228.334 267.429H229.496V214.515H256.605V213.356H229.496V191.028H250.431C250.124 190.638 249.809 190.253 249.484 189.872H229.496V175.125C229.111 174.962 228.724 174.804 228.334 174.655V189.872H205.553V170.978C205.163 170.996 204.779 171.022 204.391 171.055V189.872H186.218V175.775C185.828 175.948 185.443 176.13 185.062 176.32V189.872H169.785V191.028H185.062V213.356H169.785V214.515H185.062V267.429H186.218V214.515C188.605 214.514 190.968 214.984 193.173 215.897C195.378 216.81 197.382 218.149 199.07 219.837C200.757 221.524 202.096 223.528 203.009 225.733C203.922 227.938 204.392 230.301 204.391 232.688V267.429H205.553V214.515H228.334V267.429ZM186.218 213.356V191.028H204.391V213.356H186.218ZM205.553 213.356V191.028H206.009C208.941 191.029 211.844 191.606 214.553 192.728C217.262 193.851 219.723 195.495 221.796 197.568C223.869 199.642 225.513 202.103 226.635 204.812C227.757 207.521 228.334 210.424 228.334 213.356H205.553Z" fill="black"/>
<path d="M221.237 251.563C219.774 258.09 216.269 263.98 211.232 268.379C210.863 268.699 210.493 269.008 210.109 269.313C209.176 269.397 208.249 269.484 207.33 269.572C206.566 269.642 205.813 269.717 205.064 269.787L204.929 269.802L204.835 268.983L204.455 265.67C202.984 263.268 202.072 260.566 201.787 257.764C201.502 254.962 201.851 252.131 202.809 249.483C204.126 245.93 206.511 242.791 208.857 239.677C212.095 235.376 215.244 231.124 215.358 225.88C216.952 227.919 218.277 230.155 219.301 232.532C218.335 232.986 217.467 233.625 216.746 234.413C216.541 234.637 216.336 234.952 216.476 235.221C216.596 235.451 216.895 235.506 217.155 235.536C217.779 235.6 218.407 235.665 219.031 235.73C219.53 235.785 220.029 235.835 220.528 235.89C221.132 237.871 221.541 239.907 221.751 241.968C222.087 245.173 221.913 248.412 221.237 251.563Z" fill="#3F3D56"/>
<path d="M237.803 238.485C234.859 240.625 233.138 243.704 231.8 247.097C230.43 247.536 229.197 248.324 228.223 249.383C228.018 249.607 227.813 249.922 227.953 250.191C228.073 250.421 228.372 250.476 228.632 250.505C229.256 250.57 229.884 250.635 230.508 250.7C229.171 254.712 227.943 258.864 225.578 262.252C224.005 264.489 221.955 266.348 219.575 267.696C218.926 268.066 218.256 268.397 217.569 268.689C215.034 268.883 212.548 269.091 210.109 269.313C209.176 269.397 208.25 269.484 207.33 269.572C206.566 269.642 205.813 269.717 205.064 269.787C205.059 269.512 205.059 269.238 205.064 268.963C205.222 261.652 207.912 254.623 212.674 249.073C212.899 248.814 213.128 248.559 213.363 248.305C215.775 245.728 218.612 243.584 221.751 241.968C226.695 239.397 232.238 238.194 237.803 238.485Z" fill="#FAC172"/>
<path d="M208.193 267.012L207.619 268.709L207.33 269.572C206.567 269.642 205.813 269.717 205.065 269.787L204.93 269.802C204.101 269.886 203.278 269.971 202.455 270.056C202.24 269.807 202.026 269.552 201.816 269.293C196.608 262.985 194.107 254.873 194.862 246.728C195.617 238.583 199.564 231.068 205.843 225.825C205.184 229.273 205.953 232.577 207.215 235.855C207.08 235.91 206.951 235.965 206.826 236.025C205.86 236.479 204.992 237.118 204.271 237.906C204.067 238.13 203.862 238.445 204.002 238.714C204.121 238.944 204.421 238.999 204.68 239.029C205.304 239.093 205.933 239.158 206.557 239.223C207.056 239.278 207.555 239.328 208.054 239.383C208.288 239.408 208.523 239.433 208.757 239.458C208.792 239.533 208.822 239.602 208.857 239.677C210.279 242.761 211.811 245.86 212.674 249.073C212.891 249.88 213.061 250.698 213.183 251.523C213.567 254.314 213.318 257.156 212.455 259.837C211.591 262.518 210.134 264.971 208.193 267.012Z" fill="#FAC172"/>
<path d="M258.421 194.638C254.125 186.259 247.47 179.209 239.643 174.028C231.79 168.854 222.78 165.703 213.414 164.857C212.186 164.745 210.956 164.68 209.722 164.661C208.264 164.639 186.336 170.964 178.99 176.128C171.649 181.23 165.609 187.987 161.359 195.852C157.117 203.761 155.03 212.647 155.309 221.617C155.672 230.641 158.188 239.448 162.645 247.303C167.042 255.133 173.285 261.77 180.831 266.637C188.484 271.521 196.173 284.469 205.209 284.926C214.314 285.387 224.697 273.172 233.001 269.464C241.304 265.724 248.483 259.874 253.821 252.495C259.009 245.265 262.365 236.883 263.601 228.071C264.885 219.047 264.287 209.741 261.205 201.117C260.415 198.901 259.485 196.737 258.421 194.638C257.533 192.889 254.93 192.245 253.301 193.296C252.461 193.813 251.853 194.633 251.603 195.587C251.353 196.54 251.48 197.554 251.958 198.416C252.479 199.443 252.964 200.487 253.413 201.549L253.035 200.655C254.732 204.734 255.886 209.018 256.467 213.398L256.333 212.403C256.951 217.155 256.94 221.967 256.3 226.716L256.434 225.721C255.787 230.469 254.519 235.112 252.664 239.53L253.041 238.636C252.087 240.89 250.974 243.074 249.712 245.172C249.072 246.232 248.394 247.266 247.676 248.276C247.361 248.72 247.036 249.155 246.708 249.589C246.281 250.156 247.291 248.849 246.849 249.405C246.774 249.5 246.699 249.595 246.624 249.689C246.397 249.972 246.167 250.253 245.934 250.531C244.379 252.387 242.681 254.12 240.856 255.713C240.402 256.109 239.94 256.497 239.47 256.876C239.236 257.065 239.005 257.261 238.761 257.437C238.771 257.43 239.549 256.839 239.088 257.182C238.943 257.29 238.8 257.4 238.654 257.507C237.686 258.224 236.693 258.905 235.673 259.549C233.326 261.028 230.864 262.315 228.31 263.398L229.204 263.021C224.799 264.875 220.169 266.142 215.434 266.789L216.429 266.655C211.695 267.295 206.898 267.303 202.163 266.681L203.158 266.814C198.854 266.236 194.644 265.098 190.635 263.429L191.529 263.806C189.207 262.826 186.968 261.659 184.835 260.318C183.779 259.652 182.75 258.946 181.749 258.198C181.606 258.092 181.465 257.983 181.322 257.876C180.866 257.531 181.651 258.13 181.657 258.134C181.391 257.944 181.136 257.74 180.891 257.523C180.407 257.13 179.931 256.727 179.463 256.315C177.589 254.664 175.839 252.878 174.227 250.971C173.824 250.494 173.429 250.01 173.042 249.519C172.875 249.306 172.57 248.875 173.244 249.782C173.155 249.663 173.063 249.546 172.974 249.427C172.759 249.142 172.547 248.854 172.337 248.565C171.604 247.551 170.908 246.512 170.248 245.448C168.755 243.04 167.453 240.52 166.353 237.909L166.73 238.803C164.929 234.519 163.698 230.016 163.067 225.412L163.201 226.407C162.632 222.162 162.624 217.861 163.177 213.614L163.043 214.609C163.61 210.497 164.716 206.477 166.334 202.654L165.956 203.548C166.974 201.154 168.174 198.843 169.547 196.634C170.234 195.528 170.962 194.45 171.731 193.398C171.906 193.159 172.083 192.921 172.261 192.685C172.423 192.472 172.868 191.94 172.109 192.879C172.183 192.787 172.255 192.692 172.328 192.6C172.75 192.065 173.183 191.538 173.625 191.02C175.301 189.059 177.116 187.221 179.056 185.521C179.546 185.091 180.045 184.671 180.55 184.259C180.78 184.072 181.012 183.887 181.245 183.704C181.338 183.63 181.432 183.559 181.525 183.485C180.528 184.278 181.248 183.701 181.474 183.531C182.517 182.75 183.587 182.008 184.685 181.305C187.127 179.744 189.695 178.39 192.363 177.259L191.469 177.636C195.341 176.01 212.497 172.173 215.617 172.592L214.623 172.458C219.209 173.098 223.691 174.337 227.956 176.142L227.062 175.765C229.223 176.682 231.323 177.737 233.349 178.923C234.362 179.516 235.354 180.142 236.327 180.8C236.787 181.112 237.242 181.43 237.693 181.756C237.918 181.919 238.142 182.083 238.365 182.249C238.489 182.342 238.611 182.435 238.735 182.528C239.253 182.916 238.021 181.965 238.564 182.395C240.383 183.824 242.111 185.366 243.738 187.012C244.536 187.825 245.308 188.664 246.051 189.529C246.433 189.973 246.806 190.424 247.172 190.881C247.354 191.108 247.973 191.929 247.214 190.923C247.4 191.169 247.587 191.413 247.771 191.661C249.347 193.795 250.748 196.054 251.958 198.416C252.853 200.161 255.444 200.812 257.078 199.759C257.918 199.242 258.526 198.421 258.776 197.468C259.026 196.514 258.899 195.501 258.421 194.638Z" fill="#3F3D56"/>
<path d="M214.814 255.713C214.427 255.731 214.045 255.629 213.718 255.422C213.392 255.215 213.136 254.913 212.987 254.556C212.838 254.199 212.802 253.805 212.884 253.428C212.967 253.05 213.163 252.706 213.447 252.444C213.494 252.255 213.529 252.119 213.576 251.93C213.559 251.889 213.542 251.848 213.525 251.807C211.788 247.666 200.708 259.208 200.229 263.1C200.018 264.82 200.107 266.563 200.492 268.253C196.903 260.424 195.039 251.915 195.027 243.302C195.027 241.141 195.147 238.981 195.387 236.833C195.586 235.073 195.861 233.324 196.214 231.589C198.137 222.171 202.268 213.344 208.265 205.832C211.695 206.024 214.701 205.501 214.991 198.854C215.043 197.671 215.92 196.647 216.113 195.482C215.786 195.525 215.453 195.552 215.126 195.574C215.024 195.579 214.916 195.584 214.814 195.59L214.776 195.591C214.416 195.608 214.059 195.519 213.748 195.337C213.437 195.155 213.186 194.888 213.023 194.566C212.861 194.244 212.796 193.882 212.834 193.524C212.873 193.166 213.014 192.827 213.241 192.547C213.382 192.373 213.524 192.199 213.665 192.025C213.88 191.757 214.1 191.494 214.315 191.225C214.34 191.2 214.363 191.173 214.385 191.145C214.632 190.839 214.879 190.538 215.126 190.232C214.675 189.533 214.069 188.947 213.354 188.52C210.879 187.071 207.465 188.074 205.678 190.313C203.885 192.551 203.547 195.692 204.169 198.489C204.782 200.868 205.795 203.127 207.165 205.167C207.03 205.338 206.891 205.505 206.757 205.677C204.303 208.831 202.165 212.219 200.373 215.79C200.88 211.829 194.678 197.523 192.28 194.493C189.399 190.853 183.492 192.442 182.985 197.056C182.98 197.1 182.975 197.145 182.97 197.189C183.327 197.39 183.675 197.604 184.017 197.829C184.445 198.116 184.777 198.525 184.969 199.003C185.161 199.482 185.205 200.007 185.093 200.51C184.982 201.013 184.721 201.471 184.344 201.824C183.968 202.176 183.494 202.407 182.985 202.485L182.933 202.493C178.165 209.301 193.45 227.021 197.277 223.043C195.476 228.146 194.346 233.462 193.916 238.857C193.673 242.04 193.687 245.237 193.959 248.418L193.943 248.305C193.093 241.378 178.508 231.078 174.249 231.936C171.796 232.431 169.38 232.318 169.752 234.793C169.758 234.833 169.764 234.872 169.77 234.912C170.431 235.181 171.075 235.491 171.697 235.84C172.054 236.041 172.402 236.254 172.743 236.48C173.172 236.766 173.504 237.176 173.696 237.654C173.888 238.132 173.931 238.657 173.82 239.161C173.708 239.664 173.448 240.122 173.071 240.474C172.695 240.827 172.221 241.057 171.712 241.136L171.66 241.144C171.622 241.149 171.59 241.155 171.552 241.16C169.382 248.628 185.478 260.681 195.263 256.846H195.269C196.239 261.06 197.644 265.162 199.461 269.085H214.439C214.492 268.919 214.541 268.747 214.589 268.581C213.203 268.668 211.811 268.585 210.445 268.334C211.556 266.97 212.667 265.596 213.778 264.232C213.803 264.207 213.826 264.18 213.848 264.152C214.412 263.454 214.981 262.761 215.544 262.064L215.545 262.063C215.575 259.924 215.329 257.79 214.814 255.713L214.814 255.713ZM197.663 221.974L197.671 221.964L197.663 221.985V221.974ZM194.346 251.88L194.217 251.59C194.222 251.381 194.222 251.172 194.217 250.957C194.217 250.898 194.206 250.839 194.206 250.78C194.254 251.15 194.297 251.521 194.351 251.891L194.346 251.88Z" fill="#3F3D56"/>
<path d="M46.5285 224.548C49.56 224.548 52.0174 222.09 52.0174 219.059C52.0174 216.027 49.56 213.57 46.5285 213.57C43.497 213.57 41.0396 216.027 41.0396 219.059C41.0396 222.09 43.497 224.548 46.5285 224.548Z" fill="#3F3D56"/>
<path d="M112.396 284.427C115.428 284.427 117.885 281.97 117.885 278.938C117.885 275.907 115.428 273.449 112.396 273.449C109.365 273.449 106.907 275.907 106.907 278.938C106.907 281.97 109.365 284.427 112.396 284.427Z" fill="#3F3D56"/>
<path d="M362.392 284.427C365.424 284.427 367.881 281.97 367.881 278.938C367.881 275.907 365.424 273.449 362.392 273.449C359.361 273.449 356.903 275.907 356.903 278.938C356.903 281.97 359.361 284.427 362.392 284.427Z" fill="#3F3D56"/>
<path d="M375.865 214.568C378.897 214.568 381.354 212.11 381.354 209.079C381.354 206.047 378.897 203.59 375.865 203.59C372.834 203.59 370.376 206.047 370.376 209.079C370.376 212.11 372.834 214.568 375.865 214.568Z" fill="#3F3D56"/>
<path d="M359.898 163.67C362.929 163.67 365.387 161.213 365.387 158.181C365.387 155.15 362.929 152.692 359.898 152.692C356.866 152.692 354.409 155.15 354.409 158.181C354.409 161.213 356.866 163.67 359.898 163.67Z" fill="#3F3D56"/>
<path d="M130.859 209.079C130.855 210.481 130.313 211.828 129.344 212.842C128.375 213.855 127.054 214.457 125.653 214.523C124.253 214.59 122.88 214.115 121.82 213.198C120.76 212.28 120.093 210.99 119.957 209.595C119.822 208.199 120.228 206.805 121.091 205.701C121.955 204.596 123.21 203.866 124.597 203.661C125.984 203.456 127.397 203.793 128.543 204.601C129.689 205.408 130.481 206.626 130.754 208.001C130.824 208.356 130.859 208.717 130.859 209.079Z" fill="#3F3D56"/>
<path d="M240.638 179.638C243.669 179.638 246.127 177.181 246.127 174.149C246.127 171.118 243.669 168.66 240.638 168.66C237.606 168.66 235.149 171.118 235.149 174.149C235.149 177.181 237.606 179.638 240.638 179.638Z" fill="#3F3D56"/>
<path d="M186.247 174.149C186.244 175.551 185.702 176.898 184.733 177.912C183.764 178.925 182.443 179.528 181.042 179.594C179.642 179.66 178.269 179.185 177.209 178.268C176.149 177.351 175.482 176.061 175.346 174.665C175.21 173.27 175.616 171.875 176.48 170.771C177.344 169.666 178.599 168.936 179.986 168.731C181.373 168.527 182.786 168.863 183.932 169.671C185.078 170.479 185.869 171.696 186.143 173.071C186.213 173.426 186.248 173.787 186.247 174.149Z" fill="#3F3D56"/>
<path d="M115.39 158.181C115.387 159.584 114.844 160.931 113.875 161.944C112.907 162.958 111.585 163.56 110.185 163.626C108.784 163.692 107.412 163.218 106.351 162.3C105.291 161.383 104.624 160.093 104.489 158.697C104.353 157.302 104.759 155.908 105.623 154.803C106.486 153.699 107.742 152.968 109.129 152.764C110.516 152.559 111.928 152.895 113.074 153.703C114.22 154.511 115.012 155.728 115.285 157.104C115.355 157.459 115.391 157.82 115.39 158.181Z" fill="#3F3D56"/>
<path d="M298.022 226.544C301.054 226.544 303.511 224.086 303.511 221.055C303.511 218.023 301.054 215.566 298.022 215.566C294.991 215.566 292.533 218.023 292.533 221.055C292.533 224.086 294.991 226.544 298.022 226.544Z" fill="#3F3D56"/>
<path d="M211.696 176.644C216.105 176.644 219.68 173.07 219.68 168.66C219.68 164.251 216.105 160.676 211.696 160.676C207.286 160.676 203.712 164.251 203.712 168.66C203.712 173.07 207.286 176.644 211.696 176.644Z" fill="#3F3D56"/>
<path d="M427.607 284.847L-0.40586 285C-0.483884 285 -0.561146 284.985 -0.633231 284.955C-0.705316 284.925 -0.770809 284.881 -0.825981 284.826C-0.881152 284.771 -0.924922 284.705 -0.95478 284.633C-0.984639 284.561 -1 284.484 -1 284.406C-1 284.328 -0.984639 284.251 -0.95478 284.178C-0.924922 284.106 -0.881152 284.041 -0.825981 283.986C-0.770809 283.931 -0.705316 283.887 -0.633231 283.857C-0.561146 283.827 -0.483884 283.812 -0.40586 283.812L427.607 283.658C427.764 283.659 427.915 283.722 428.026 283.833C428.137 283.944 428.2 284.095 428.2 284.252C428.2 284.41 428.137 284.561 428.026 284.672C427.915 284.783 427.764 284.846 427.607 284.847Z" fill="#CACACA"/>
</g>
<defs>
<clipPath id="clip0_153_75">
<rect width="429.201" height="285" fill="white" transform="translate(-1)"/>
</clipPath>
</defs>
</svg>
