<svg width="428" height="351" viewBox="0 0 428 351" fill="none" xmlns="http://www.w3.org/2000/svg">
<path d="M162.381 341.56C160.141 341.56 158.074 341.2 156.181 340.48C154.288 339.76 152.634 338.747 151.221 337.44C149.834 336.107 148.754 334.56 147.981 332.8C147.208 331.04 146.821 329.107 146.821 327C146.821 324.893 147.208 322.96 147.981 321.2C148.754 319.44 149.834 317.907 151.221 316.6C152.634 315.267 154.288 314.24 156.181 313.52C158.074 312.8 160.141 312.44 162.381 312.44C164.648 312.44 166.714 312.8 168.581 313.52C170.474 314.24 172.114 315.267 173.501 316.6C174.888 317.907 175.968 319.44 176.741 321.2C177.541 322.96 177.941 324.893 177.941 327C177.941 329.107 177.541 331.053 176.741 332.84C175.968 334.6 174.888 336.133 173.501 337.44C172.114 338.747 170.474 339.76 168.581 340.48C166.714 341.2 164.648 341.56 162.381 341.56ZM162.381 335C163.448 335 164.434 334.813 165.341 334.44C166.274 334.067 167.074 333.533 167.741 332.84C168.434 332.12 168.968 331.267 169.341 330.28C169.741 329.293 169.941 328.2 169.941 327C169.941 325.773 169.741 324.68 169.341 323.72C168.968 322.733 168.434 321.893 167.741 321.2C167.074 320.48 166.274 319.933 165.341 319.56C164.434 319.187 163.448 319 162.381 319C161.314 319 160.314 319.187 159.381 319.56C158.474 319.933 157.674 320.48 156.981 321.2C156.314 321.893 155.781 322.733 155.381 323.72C155.008 324.68 154.821 325.773 154.821 327C154.821 328.2 155.008 329.293 155.381 330.28C155.781 331.267 156.314 332.12 156.981 332.84C157.674 333.533 158.474 334.067 159.381 334.44C160.314 334.813 161.314 335 162.381 335ZM196.209 341.56C193.969 341.56 191.902 341.2 190.009 340.48C188.116 339.76 186.462 338.747 185.049 337.44C183.662 336.107 182.582 334.56 181.809 332.8C181.036 331.04 180.649 329.107 180.649 327C180.649 324.893 181.036 322.96 181.809 321.2C182.582 319.44 183.662 317.907 185.049 316.6C186.462 315.267 188.116 314.24 190.009 313.52C191.902 312.8 193.969 312.44 196.209 312.44C198.476 312.44 200.542 312.8 202.409 313.52C204.302 314.24 205.942 315.267 207.329 316.6C208.716 317.907 209.796 319.44 210.569 321.2C211.369 322.96 211.769 324.893 211.769 327C211.769 329.107 211.369 331.053 210.569 332.84C209.796 334.6 208.716 336.133 207.329 337.44C205.942 338.747 204.302 339.76 202.409 340.48C200.542 341.2 198.476 341.56 196.209 341.56ZM196.209 335C197.276 335 198.262 334.813 199.169 334.44C200.102 334.067 200.902 333.533 201.569 332.84C202.262 332.12 202.796 331.267 203.169 330.28C203.569 329.293 203.769 328.2 203.769 327C203.769 325.773 203.569 324.68 203.169 323.72C202.796 322.733 202.262 321.893 201.569 321.2C200.902 320.48 200.102 319.933 199.169 319.56C198.262 319.187 197.276 319 196.209 319C195.142 319 194.142 319.187 193.209 319.56C192.302 319.933 191.502 320.48 190.809 321.2C190.142 321.893 189.609 322.733 189.209 323.72C188.836 324.68 188.649 325.773 188.649 327C188.649 328.2 188.836 329.293 189.209 330.28C189.609 331.267 190.142 332.12 190.809 332.84C191.502 333.533 192.302 334.067 193.209 334.44C194.142 334.813 195.142 335 196.209 335ZM215.917 341V313H228.717C231.277 313 233.477 313.413 235.317 314.24C237.184 315.067 238.624 316.267 239.637 317.84C240.651 319.387 241.157 321.227 241.157 323.36C241.157 325.467 240.651 327.293 239.637 328.84C238.624 330.387 237.184 331.587 235.317 332.44C233.477 333.267 231.277 333.68 228.717 333.68H220.317L223.837 330.24V341H215.917ZM223.837 331.08L220.317 327.44H228.237C229.891 327.44 231.117 327.08 231.917 326.36C232.744 325.64 233.157 324.64 233.157 323.36C233.157 322.053 232.744 321.04 231.917 320.32C231.117 319.6 229.891 319.24 228.237 319.24H220.317L223.837 315.6V331.08ZM255.249 341.56C252.956 341.56 250.743 341.28 248.609 340.72C246.503 340.133 244.783 339.387 243.449 338.48L246.049 332.64C247.303 333.44 248.743 334.107 250.369 334.64C252.023 335.147 253.663 335.4 255.289 335.4C256.383 335.4 257.263 335.307 257.929 335.12C258.596 334.907 259.076 334.64 259.369 334.32C259.689 333.973 259.849 333.573 259.849 333.12C259.849 332.48 259.556 331.973 258.969 331.6C258.383 331.227 257.623 330.92 256.689 330.68C255.756 330.44 254.716 330.2 253.569 329.96C252.449 329.72 251.316 329.413 250.169 329.04C249.049 328.667 248.023 328.187 247.089 327.6C246.156 326.987 245.396 326.2 244.809 325.24C244.223 324.253 243.929 323.013 243.929 321.52C243.929 319.84 244.383 318.32 245.289 316.96C246.223 315.6 247.609 314.507 249.449 313.68C251.289 312.853 253.583 312.44 256.329 312.44C258.169 312.44 259.969 312.653 261.729 313.08C263.516 313.48 265.103 314.08 266.489 314.88L264.049 320.76C262.716 320.04 261.396 319.507 260.089 319.16C258.783 318.787 257.516 318.6 256.289 318.6C255.196 318.6 254.316 318.72 253.649 318.96C252.983 319.173 252.503 319.467 252.209 319.84C251.916 320.213 251.769 320.64 251.769 321.12C251.769 321.733 252.049 322.227 252.609 322.6C253.196 322.947 253.956 323.24 254.889 323.48C255.849 323.693 256.889 323.92 258.009 324.16C259.156 324.4 260.289 324.707 261.409 325.08C262.556 325.427 263.596 325.907 264.529 326.52C265.463 327.107 266.209 327.893 266.769 328.88C267.356 329.84 267.649 331.053 267.649 332.52C267.649 334.147 267.183 335.653 266.249 337.04C265.343 338.4 263.969 339.493 262.129 340.32C260.316 341.147 258.023 341.56 255.249 341.56ZM271.508 330.8L270.028 313H279.068L277.548 330.8H271.508ZM274.548 341.36C273.214 341.36 272.121 340.947 271.268 340.12C270.414 339.293 269.988 338.307 269.988 337.16C269.988 335.987 270.414 335.013 271.268 334.24C272.121 333.44 273.214 333.04 274.548 333.04C275.881 333.04 276.961 333.44 277.788 334.24C278.641 335.013 279.068 335.987 279.068 337.16C279.068 338.307 278.641 339.293 277.788 340.12C276.961 340.947 275.881 341.36 274.548 341.36Z" fill="#EE6363"/>
<g clip-path="url(#clip0_143_267)">
<path d="M360.704 326.493C362.389 326.598 363.32 324.505 362.044 323.286L361.917 322.782C361.934 322.742 361.951 322.702 361.968 322.662C362.973 320.265 365.741 319.13 368.144 320.123C375.742 323.262 367.72 330.477 368.323 335.358C368.534 337.043 375.138 337.136 374.765 338.789C378.277 331.116 380.123 322.738 380.12 314.313C380.119 312.196 380.003 310.079 379.765 307.968C379.569 306.241 379.3 304.524 378.952 302.823C377.068 293.63 372.992 284.875 367.114 277.563C364.29 276.021 366.013 273.609 364.589 270.718C364.078 269.676 359.517 269.653 359.327 268.51C359.531 268.537 362.479 265.476 361.505 263.964C360.864 262.968 361.064 261.7 361.887 260.849C361.968 260.766 362.044 260.678 362.114 260.583C364.545 257.286 367.897 257.86 369.649 262.339C373.387 264.223 373.425 267.35 371.132 270.358C369.674 272.272 369.474 274.861 368.194 276.91C368.326 277.078 368.463 277.241 368.595 277.41C371.012 280.505 373.102 283.832 374.864 287.328C374.365 283.443 375.098 278.761 376.35 275.743C377.785 272.28 380.486 269.366 382.851 266.37C385.675 262.792 391.425 264.416 391.924 268.946C391.929 268.99 391.934 269.033 391.938 269.077C391.588 269.274 391.246 269.484 390.911 269.705C389.003 270.967 389.664 273.924 391.926 274.271L391.977 274.279C391.851 275.538 387.382 279.502 387.066 280.729C390.089 292.394 387.827 293.934 378.529 294.13L378.041 294.824C378.922 297.357 379.631 299.949 380.163 302.575C380.665 305.013 381.013 307.478 381.209 309.952C381.453 313.075 381.433 316.213 381.17 319.331L381.186 319.22C381.854 315.787 383.718 312.579 386.426 310.356C390.459 307.043 396.158 305.821 400.51 303.157C402.604 301.875 405.29 303.53 404.925 305.958L404.907 306.074C404.259 306.337 403.627 306.643 403.016 306.986C402.666 307.183 402.323 307.393 401.988 307.615C400.08 308.877 400.741 311.834 403.003 312.18L403.055 312.188C403.091 312.193 403.123 312.199 403.16 312.204C402.049 314.842 391.466 318.564 389.528 320.676C387.643 330.865 388.569 330.562 379.893 327.598H379.888C378.941 331.727 377.556 335.761 375.777 339.605L361.077 339.61C361.024 339.447 360.977 339.279 360.929 339.115C362.288 339.199 363.658 339.12 364.997 338.872C363.905 337.535 362.814 336.187 361.723 334.85C361.697 334.824 361.676 334.797 361.655 334.771L361.638 334.75L360.125 329.771C360.244 328.667 360.439 327.572 360.703 326.494L360.704 326.493V326.493V326.493Z" fill="#F2F2F2"/>
<path d="M205.361 339.491L75.2837 339.536C68.7489 339.538 62.8953 336.163 59.6259 330.509C57.9911 327.681 57.1734 324.579 57.1724 321.476C57.1713 318.374 57.9872 315.271 59.6197 312.443L124.617 194.19C127.883 188.532 133.734 185.154 140.269 185.152C146.804 185.149 152.657 188.524 155.927 194.179L221.014 312.402C222.645 315.222 223.461 318.32 223.461 321.421C223.461 324.521 222.645 327.624 221.012 330.453C217.747 336.11 211.896 339.489 205.361 339.491H205.361ZM58.8074 321.474C58.8072 324.298 73.1608 318.213 74.6478 320.785C77.6223 325.93 69.3378 337.907 75.2831 337.905C75.2831 337.905 216.628 334.785 219.599 329.638C221.084 327.065 221.827 324.242 221.826 321.419C221.825 318.597 221.081 315.775 219.593 313.203L154.506 194.98C151.54 189.85 146.215 186.78 140.269 186.782C134.327 186.784 58.8077 318.65 58.8074 321.474H58.8074Z" fill="#3F3D56"/>
<path d="M206.805 337.86C205.175 341.121 281.539 340.119 282.442 340.119C282.442 340.119 303.906 339.645 304.357 338.863C304.583 338.473 304.695 338.044 304.695 337.615C304.695 337.187 304.582 336.758 304.356 336.368L294.472 318.415C294.022 317.636 293.213 317.17 292.31 317.17C292.273 317.17 292.217 317.203 292.146 317.267C278.961 329.043 262.711 336.827 245.03 337.09C226.23 337.37 206.909 337.653 206.805 337.86H206.805Z" fill="#3F3D56"/>
<path d="M6.10601e-08 340.03C0.000187684 340.568 0.432707 341 0.971127 341L427.03 340.853C427.568 340.852 428 340.42 428 339.882C428 339.344 427.567 338.912 427.029 338.912L0.970458 339.06C0.432038 339.06 -0.000187562 339.492 6.106e-08 340.03H6.10601e-08Z" fill="#CCCCCC"/>
<path d="M329.463 335.321L322.085 335.323L318.565 306.882L329.455 306.879L329.463 335.321Z" fill="#A0616A"/>
<path d="M304.185 335.163C303.955 335.549 303.834 336.798 303.834 337.247C303.835 338.629 304.956 339.75 306.34 339.749L329.189 339.741C330.133 339.741 330.897 338.976 330.897 338.033L330.897 337.082C330.897 337.082 332.026 334.225 329.698 330.704C329.698 330.704 326.806 333.462 322.483 329.144L321.207 326.837L311.984 333.584L306.871 334.214C305.752 334.352 304.76 334.194 304.185 335.163H304.185Z" fill="#2F2E41"/>
<path d="M301.173 310.996L294.184 313.359L281.735 287.543L292.05 284.054L301.173 310.996Z" fill="#A0616A"/>
<path d="M277.175 318.937C277.081 319.377 277.367 320.598 277.511 321.024C277.954 322.333 279.376 323.035 280.686 322.592L302.329 315.271C303.223 314.968 303.702 313.999 303.4 313.106L303.095 312.205C303.095 312.205 303.249 309.137 299.915 306.546C299.915 306.546 298.06 310.085 292.58 307.379L290.633 305.601L284.057 314.944L279.415 317.179C278.4 317.668 277.409 317.835 277.175 318.937L277.175 318.937Z" fill="#2F2E41"/>
<path d="M289.776 146.005L275.465 193.372L258.57 235.979L285.318 296.825L295.235 292.416L283.368 236.521L308.255 198.593L319.868 316.995L329.787 316.441L343.238 173.523L345.156 142.406L289.776 146.005Z" fill="#2F2E41"/>
<path d="M332.998 41.077L312.059 44.9393L310.409 54.3022L297.737 60.3646L291.148 129.208C291.148 129.208 280.132 143.53 288.95 147.933L345.156 142.406C345.156 142.406 347.908 132.223 345.152 131.257C342.396 130.291 342.388 105.968 342.388 105.968L355.045 55.939L336.307 49.3368L332.998 41.077Z" fill="#E6E6E6"/>
<path d="M320.647 40.8964C329.986 40.8964 337.556 33.3307 337.556 23.998C337.556 14.6652 329.986 7.09955 320.647 7.09955C311.309 7.09955 303.739 14.6652 303.739 23.998C303.739 33.3307 311.309 40.8964 320.647 40.8964Z" fill="#A0616A"/>
<path d="M331.844 26.506C330.495 27.2442 331.775 30.7687 330.932 31.0734C329.957 31.4256 326.403 27.3826 326.359 22.8542C326.346 21.4836 326.661 20.8255 326.358 19.2005C325.961 17.0748 324.742 14.5677 323.614 14.6343C322.945 14.6737 322.292 15.6185 322.244 16.4616C322.175 17.6432 323.324 18.1083 323.158 18.7449C322.843 19.9572 318.021 20.7943 316.304 18.7472C314.958 17.1424 315.99 14.3247 315.388 14.1804C314.945 14.0741 314.468 15.6254 312.647 17.3783C311.961 18.0388 310.941 19.021 310.363 18.7493C309.528 18.3566 310.134 15.5891 309.905 15.5524C309.715 15.5221 309.595 17.4672 308.535 19.2066C307.173 21.4413 304.363 23.1637 303.052 22.4055C302.249 21.941 302.186 20.6478 302.137 19.6656C302.036 17.5963 299.027 12.8366 299.805 10.623C301.39 6.11759 304.104 9.29345 305.332 7.7899C306.994 5.75445 308.486 6.84881 311.272 4.59085C313.994 2.38505 314.018 0.168027 315.84 0.0221278C317.482 -0.10926 318.065 1.64065 319.954 1.39084C321.553 1.17923 321.901 -0.178011 323.152 0.0195924C324.297 0.200499 324.373 1.39615 325.895 1.8455C326.866 2.13237 327.08 1.71715 328.179 1.84471C330.468 2.11013 332.005 4.19334 332.293 4.58357C333.403 6.08794 332.973 6.72233 334.123 8.23664C335.114 9.54252 337.311 8.98798 338.138 9.64021C340.837 11.7714 341.997 15.7016 342.02 20.1812C342.037 23.3144 341.628 24.8974 340.716 28.852C340.023 31.855 336.815 35.7356 335.047 37.466C334.572 37.9305 333.241 39.2327 332.305 38.8371C331.418 38.4622 331.392 36.7764 331.39 36.5538C331.386 35.7883 331.59 34.8411 333.217 32.4428C334.925 29.9236 335.604 29.6361 335.501 28.7883C335.317 27.2897 332.919 25.9176 331.844 26.506H331.844Z" fill="#2F2E41"/>
<path d="M272.864 184.053C272.338 188.458 274.185 192.3 276.989 192.634C279.794 192.969 282.494 189.67 283.02 185.265C283.251 183.337 283.026 181.517 282.466 180.052L284.461 161.36L275.665 160.611L274.631 179.117C273.741 180.409 273.094 182.125 272.864 184.053H272.864H272.864Z" fill="#A0616A"/>
<path d="M298.149 59.9198C298.149 59.9198 293.592 59.9846 290.575 65.8743C288.971 69.0041 280.392 127.531 280.392 127.531L272.49 175.475L285.951 175.543L296.441 130.138L305.265 103.805L298.149 59.9198L298.149 59.9198Z" fill="#E6E6E6"/>
<path d="M336.032 177.018C334.743 181.262 335.889 185.368 338.592 186.188C341.294 187.008 344.53 184.231 345.819 179.987C346.384 178.129 346.481 176.297 346.186 174.756L351.422 156.702L342.893 154.427L338.636 172.466C337.533 173.583 336.596 175.16 336.032 177.018V177.018Z" fill="#A0616A"/>
<path d="M345.401 56.7684C345.401 56.7684 352.012 51.8096 357.526 59.5178C363.039 67.2261 365.265 130.559 365.265 130.559L349.849 169.665L338.275 165.814L349.28 117.898L329.98 81.5564L345.401 56.7684H345.401Z" fill="#E6E6E6"/>
<path d="M178.225 313.412C211.114 313.412 237.775 286.767 237.775 253.898C237.775 221.029 211.114 194.384 178.225 194.384C145.337 194.384 118.675 221.029 118.675 253.898C118.675 286.767 145.337 313.412 178.225 313.412Z" fill="#EE6363"/>
<path d="M178.236 290.381C181.255 290.381 183.703 287.934 183.703 284.916C183.703 281.899 181.255 279.452 178.236 279.452C175.216 279.452 172.768 281.899 172.768 284.916C172.768 287.934 175.216 290.381 178.236 290.381Z" fill="white"/>
<path d="M178.212 217.415C177.71 220.75 178.61 221.448 178.615 235.828C178.62 250.207 181.605 269.486 178.23 269.488C174.855 269.489 173.621 229.701 161.902 226.179C148.123 222.039 179.838 206.618 178.212 217.415Z" fill="white"/>
<path d="M98.3005 284.283L92.9204 295.644C99.4246 290.983 109.584 286.965 117.668 284.813C110.136 281.176 100.918 275.313 95.4117 269.509L98.5062 281.513C62.2266 274.128 36.1736 246.313 36.1625 214.45L34.8521 214C34.8636 247.281 60.5561 276.743 98.3005 284.283V284.283Z" fill="#3F3D56"/>
</g>
<defs>
<clipPath id="clip0_143_267">
<rect width="428" height="341" fill="white"/>
</clipPath>
</defs>
</svg>
