<svg width="428" height="327" viewBox="0 0 428 327" fill="none" xmlns="http://www.w3.org/2000/svg">
<path d="M173.664 67.8123H172.099V24.8598C172.099 21.5951 171.457 18.3625 170.21 15.3464C168.963 12.3302 167.136 9.58971 164.831 7.28127C162.527 4.97283 159.792 3.14167 156.781 1.89235C153.771 0.643023 150.544 2.76605e-06 147.285 0H56.453C49.872 -1.25689e-05 43.5605 2.61912 38.907 7.28121C34.2535 11.9433 31.6392 18.2665 31.6392 24.8597V260.501C31.6392 263.765 32.281 266.998 33.528 270.014C34.775 273.03 36.6028 275.771 38.9069 278.079C41.2111 280.388 43.9466 282.219 46.9571 283.468C49.9676 284.717 53.1943 285.36 56.4529 285.36H147.285C153.866 285.36 160.178 282.741 164.831 278.079C169.485 273.417 172.099 267.094 172.099 260.501V98.3866H173.664V67.8123Z" fill="#3F3D56"/>
<path d="M148.287 6.46765H136.43C136.976 7.80692 137.184 9.25998 137.036 10.6988C136.889 12.1377 136.391 13.5181 135.586 14.7186C134.78 15.9191 133.693 16.9027 132.418 17.5829C131.144 18.2631 129.723 18.6189 128.279 18.619H76.2423C74.7986 18.6189 73.3771 18.2631 72.103 17.5829C70.8288 16.9027 69.7412 15.9191 68.9359 14.7186C68.1306 13.5181 67.6324 12.1377 67.4851 10.6988C67.3377 9.25999 67.5459 7.80692 68.0911 6.46765H57.017C54.5835 6.46765 52.1739 6.94785 49.9256 7.88082C47.6774 8.8138 45.6346 10.1813 43.9138 11.9052C42.1931 13.6291 40.8282 15.6757 39.8969 17.9281C38.9656 20.1805 38.4863 22.5946 38.4863 25.0326V260.328C38.4863 262.766 38.9656 265.18 39.8969 267.432C40.8281 269.685 42.1931 271.731 43.9138 273.455C45.6346 275.179 47.6774 276.547 49.9256 277.48C52.1739 278.413 54.5835 278.893 57.017 278.893H148.287C150.72 278.893 153.13 278.413 155.378 277.48C157.627 276.547 159.669 275.179 161.39 273.455C163.111 271.731 164.476 269.685 165.407 267.432C166.338 265.18 166.818 262.766 166.818 260.328V25.0326C166.818 22.5946 166.338 20.1805 165.407 17.9281C164.476 15.6757 163.111 13.6291 161.39 11.9052C159.669 10.1813 157.627 8.8138 155.378 7.88082C153.13 6.94785 150.72 6.46765 148.287 6.46765Z" fill="white"/>
<path d="M102.652 182.025C127.165 182.025 147.036 162.116 147.036 137.558C147.036 112.999 127.165 93.0909 102.652 93.0909C78.1388 93.0909 58.2671 112.999 58.2671 137.558C58.2671 162.116 78.1388 182.025 102.652 182.025Z" fill="#63B5A0"/>
<path d="M98.2535 154.521C97.255 154.522 96.283 154.199 95.4842 153.598L95.4346 153.561L85.0036 145.567C84.5205 145.196 84.1151 144.733 83.8105 144.205C83.5059 143.677 83.3081 143.094 83.2284 142.49C83.1487 141.885 83.1886 141.271 83.3459 140.682C83.5032 140.092 83.7748 139.54 84.1452 139.056C84.5155 138.572 84.9774 138.166 85.5045 137.861C86.0315 137.556 86.6134 137.357 87.2169 137.278C87.8204 137.198 88.4337 137.238 89.0217 137.395C89.6098 137.553 90.1611 137.825 90.6442 138.196L97.4006 143.387L113.366 122.519C113.736 122.035 114.198 121.629 114.725 121.324C115.252 121.019 115.833 120.821 116.437 120.741C117.04 120.662 117.653 120.702 118.241 120.859C118.829 121.017 119.38 121.289 119.863 121.659L119.864 121.661L119.765 121.798L119.867 121.661C120.841 122.411 121.478 123.517 121.639 124.738C121.8 125.958 121.47 127.193 120.724 128.17L101.945 152.704C101.51 153.269 100.952 153.727 100.312 154.041C99.6728 154.355 98.9697 154.517 98.2576 154.515L98.2535 154.521Z" fill="white"/>
<path d="M366.893 289.771C367.433 288.897 368.068 288.085 368.788 287.352C369.085 287.044 369.398 286.753 369.72 286.47C371.683 284.72 374.075 283.526 376.651 283.009C379.227 282.492 381.894 282.673 384.378 283.531C386.862 284.389 389.072 285.895 390.783 287.893C392.493 289.891 393.641 292.309 394.109 294.899C396.277 286.868 390.634 278.957 384.961 272.88C379.284 266.806 372.797 260.142 372.829 251.819C372.845 247.187 375.107 243.055 378.521 239.992C378.626 239.899 378.732 239.806 378.839 239.717C382.966 236.173 388.276 234.319 393.707 234.526C403.798 235.067 412.609 241.862 418.728 249.921C428.577 262.889 432.893 281.092 425.998 295.855C419.933 308.838 406.998 316.548 393.797 322.746C391.954 323.612 390.114 324.451 388.278 325.265C388.266 325.268 388.253 325.276 388.241 325.28C388.152 325.319 388.064 325.358 387.981 325.398C387.602 325.565 387.223 325.733 386.847 325.898L387.021 326.012L387.564 326.364C387.376 326.25 387.19 326.139 387.002 326.025C386.946 325.99 386.886 325.958 386.831 325.923C380.347 322.026 373.773 317.902 369.294 311.818C364.648 305.5 362.781 296.45 366.893 289.771Z" fill="#F1F1F1"/>
<path d="M410.151 275.099C411.587 278.371 412.539 281.836 412.976 285.383C413.321 288.546 413.191 291.743 412.592 294.868C411.305 301.289 408.497 307.307 404.405 312.415C401.317 316.292 397.753 319.764 393.797 322.746C391.954 323.612 390.114 324.451 388.278 325.265C388.266 325.268 388.253 325.277 388.241 325.28C388.152 325.319 388.064 325.358 387.981 325.398C387.602 325.565 387.223 325.733 386.847 325.898L387.021 326.012L387.564 326.364C387.376 326.25 387.19 326.139 387.002 326.025C386.946 325.99 386.886 325.958 386.831 325.923C388.258 320.923 388.467 315.653 387.442 310.555C386.417 305.456 384.188 300.679 380.94 296.621C377.675 292.616 373.511 289.439 368.788 287.352C369.085 287.044 369.398 286.753 369.72 286.47C371.54 287.307 373.282 288.304 374.926 289.448C380.806 293.52 385.221 299.38 387.518 306.161C389.569 312.314 389.825 318.924 388.257 325.217C388.582 325.004 388.909 324.785 389.226 324.568C395.266 320.487 400.833 315.586 405.026 309.576C408.643 304.496 410.957 298.604 411.765 292.418C412.569 285.66 410.881 279.014 407.87 272.984C404.544 266.533 400.354 260.568 395.415 255.255C390.454 249.795 384.846 244.963 378.713 240.868C378.575 240.774 378.478 240.631 378.442 240.468C378.407 240.305 378.435 240.135 378.521 239.992C378.587 239.862 378.701 239.763 378.839 239.717C378.909 239.699 378.983 239.697 379.054 239.711C379.124 239.726 379.191 239.756 379.249 239.8C380.006 240.306 380.756 240.816 381.498 241.342C387.673 245.723 393.281 250.855 398.194 256.621C402.94 262.179 407.26 268.354 410.151 275.099Z" fill="white"/>
<path d="M277.96 20.6471C283.166 20.6471 287.386 16.4191 287.386 11.2035C287.386 5.98803 283.166 1.76001 277.96 1.76001C272.754 1.76001 268.534 5.98803 268.534 11.2035C268.534 16.4191 272.754 20.6471 277.96 20.6471Z" fill="#F1F1F1"/>
<path d="M395.168 147.024C398.342 147.024 400.915 144.446 400.915 141.266C400.915 138.087 398.342 135.509 395.168 135.509C391.994 135.509 389.421 138.087 389.421 141.266C389.421 144.446 391.994 147.024 395.168 147.024Z" fill="#F1F1F1"/>
<path d="M226.977 162.821C230.151 162.821 232.724 160.243 232.724 157.063C232.724 153.884 230.151 151.306 226.977 151.306C223.803 151.306 221.23 153.884 221.23 157.063C221.23 160.243 223.803 162.821 226.977 162.821Z" fill="#F1F1F1"/>
<path d="M1.12533 327H429.875C430.173 327 430.459 326.947 430.67 326.854C430.881 326.76 431 326.633 431 326.5C431 326.367 430.881 326.24 430.67 326.146C430.459 326.053 430.173 326 429.875 326H1.12533C0.826871 326 0.540656 326.053 0.329617 326.146C0.118577 326.24 0 326.367 0 326.5C0 326.633 0.118577 326.76 0.329617 326.854C0.540656 326.947 0.826871 327 1.12533 327Z" fill="#CBCBCB"/>
<path d="M408.375 50.8851C408.638 49.0147 408.207 47.1128 407.164 45.5395C406.121 43.9663 404.538 42.8311 402.715 42.3491C400.892 41.8671 398.956 42.0717 397.274 42.9242C395.591 43.7768 394.279 45.2179 393.587 46.9746L377.337 65.6386L382.105 78.9801L398.447 57.1721C399.514 57.5143 400.642 57.6181 401.753 57.4762C402.864 57.3343 403.93 56.9501 404.876 56.3507C405.823 55.7513 406.627 54.9513 407.231 54.0069C407.836 53.0626 408.226 51.9969 408.375 50.8851Z" fill="#FFB7B7"/>
<path d="M341.017 123.506L394.958 65.8318L387.682 54.243L320.026 111.568L341.017 123.506Z" fill="#3F3D56"/>
<path d="M328.978 88.4638C339.428 88.4638 347.899 79.9766 347.899 69.5072C347.899 59.0378 339.428 50.5507 328.978 50.5507C318.528 50.5507 310.056 59.0378 310.056 69.5072C310.056 79.9766 318.528 88.4638 328.978 88.4638Z" fill="#2F2E41"/>
<path d="M330.499 58.7985C334.57 54.662 339.497 51.47 344.933 49.4471C348.422 48.152 352.22 47.3519 355.868 48.0873C359.516 48.8228 362.966 51.351 363.983 54.9368C364.816 57.869 363.956 61.026 362.665 63.7861C361.373 66.5463 359.649 69.1058 358.605 71.9689C357.539 74.8904 357.219 78.0322 357.673 81.1092C358.126 84.1861 359.34 87.1009 361.203 89.5887C363.067 92.0766 365.521 94.0588 368.343 95.3555C371.165 96.6522 374.265 97.2222 377.363 97.0138C373.779 97.4953 370.475 99.1828 366.971 100.081C363.468 100.979 359.333 100.918 356.73 98.4038C353.975 95.7433 353.92 91.4177 354.053 87.5867C354.251 81.8919 354.449 76.197 354.647 70.5022C354.748 67.5979 354.834 64.6006 353.789 61.8898C352.743 59.1791 350.259 56.8054 347.358 56.8301C345.16 56.8488 343.214 58.183 341.451 59.4988C339.688 60.8146 337.822 62.2184 335.632 62.4141C333.443 62.6098 330.943 60.9863 331.107 58.79L330.499 58.7985Z" fill="#2F2E41"/>
<path d="M257.112 196.791C255.296 197.297 253.357 197.117 251.664 196.287C249.971 195.456 248.641 194.032 247.926 192.284C247.211 190.537 247.16 188.587 247.784 186.805C248.408 185.022 249.662 183.531 251.31 182.613L267.657 164.034L281.482 167.027L262.037 186.109C262.515 187.123 262.765 188.23 262.77 189.352C262.774 190.474 262.534 191.583 262.064 192.602C261.595 193.62 260.908 194.523 260.052 195.247C259.197 195.971 258.193 196.498 257.113 196.791H257.112Z" fill="#FFB7B7"/>
<path d="M310.892 130.276L270.15 181.511L257.731 175.799L305.619 101.108L310.892 130.276Z" fill="#3F3D56"/>
<path d="M278.384 284.985L268.674 284.833L269.842 317.989H278.382L278.384 284.985Z" fill="#FFB7B7"/>
<path d="M280.561 315.195L263.741 315.195H263.74C260.898 315.195 258.171 316.326 256.161 318.34C254.151 320.354 253.022 323.085 253.021 325.933V326.282L280.56 326.283L280.561 315.195Z" fill="#2F2E41"/>
<path d="M342.673 276.192L332.066 283.014L353.284 308.587L360.471 303.964L342.673 276.192Z" fill="#FFB7B7"/>
<path d="M360.797 300.434L346.643 309.538L346.643 309.538C344.251 311.077 342.567 313.505 341.961 316.287C341.356 319.07 341.878 321.98 343.414 324.376L343.602 324.67L366.776 309.765L360.797 300.434Z" fill="#2F2E41"/>
<path d="M346.452 174.948C346.452 174.948 322.885 96.5269 315.311 95.4672C307.737 94.4075 295.534 115.589 295.534 115.589C279.712 135.814 263.396 201.326 263.396 201.326C263.396 201.326 290.594 203.031 310.476 213.628C330.358 224.226 353.821 213.092 353.821 213.092L346.452 174.948Z" fill="#3F3D56"/>
<path opacity="0.1" d="M346.452 174.948C346.452 174.948 322.885 96.527 315.311 95.4672C307.737 94.4075 298.633 115.804 298.633 115.804C290.749 148.451 263.396 201.326 263.396 201.326C263.396 201.326 290.594 203.031 310.476 213.628C330.358 224.226 353.821 213.092 353.821 213.092L346.452 174.948Z" fill="black"/>
<path d="M327.117 151.485V190.891L331.746 247.973L354.872 291.152L343.834 299.05L312.299 257.978L299.826 217.195L280.237 307.475L265.521 306.422L275.741 181.251L295.136 146.018L327.117 151.485Z" fill="#2F2E41"/>
<path d="M303.355 113.37C295.996 120.742 302.829 128.641 302.829 128.641L294.419 147.597L327.532 156.549L339.104 104.746L331.22 96.3209C315.452 95.7944 315.443 95.467 315.443 95.467C312.681 98.1756 303.355 113.37 303.355 113.37Z" fill="#63B5A0"/>
<path d="M340.437 99.3793C338.933 98.2671 337.224 97.465 335.409 97.0193C333.593 96.5736 331.707 96.4932 329.86 96.7828C328.014 97.0724 326.243 97.7262 324.65 98.7064C323.057 99.6866 321.674 100.974 320.582 102.493C312.257 114.105 304.56 132.856 315.165 156.241C332.194 193.79 347.013 213.013 353.037 213.011C353.3 213.013 353.562 212.972 353.812 212.889C357.52 211.628 362.881 205.342 363.852 199.802C364.199 197.819 364.117 195.057 361.75 193.161C354.951 187.713 342.745 170.749 338.938 148.422C336.834 136.084 340.914 124.846 344.708 117.591C346.31 114.589 346.779 111.109 346.028 107.789C345.277 104.469 343.357 101.531 340.62 99.5143L340.437 99.3793Z" fill="#3F3D56"/>
<path d="M329.951 86.6015C336.701 82.9049 339.181 74.4264 335.492 67.6641C331.802 60.9018 323.339 58.4166 316.589 62.1132C309.839 65.8098 307.359 74.2884 311.049 81.0506C314.738 87.8129 323.201 90.2981 329.951 86.6015Z" fill="#FFB7B7"/>
<path d="M303.682 73.3023H323.794L324 70.4094L325.031 73.3023H328.128L328.537 67.5687L330.581 73.3023H336.573V73.0182C336.569 69.0266 334.984 65.1997 332.167 62.3772C329.349 59.5546 325.529 57.967 321.545 57.9625H318.71C314.725 57.967 310.906 59.5546 308.088 62.3772C305.271 65.1997 303.686 69.0266 303.682 73.0182V73.3023Z" fill="#2F2E41"/>
<path d="M333.535 83.7006L342.117 80.9104V60.029H325.906L326.307 60.4305C331.891 66.0179 338.102 85.8412 333.535 83.7006Z" fill="#2F2E41"/>
</svg>
